$MeshFormat
4.1 0 8
$EndMeshFormat
$PhysicalNames
1
2 1 "Fluid"
$EndPhysicalNames
$Entities
0 0 1 0
1 0 0 0 1 1 0 1 1 0 
$EndEntities
$Nodes
1 16 1 16
2 1 0 16
1
2
3
4
5
6
7
8
9
10
11
12
13
14
15
16
0 0 0
1 0 0
1 0.5 0
0.5 0.5 0
0.5 1 0
0 1 0
0.625 0.25 0
0.25 0.625 0
0.375 0.25 0
0.25 0.375 0
0.875 0.25 0
0.7083333333333334 0.4166666666666667 0
0.4166666666666667 0.7083333333333334 0
0.25 0.875 0
0.5416666666666666 0.08333333333333333 0
0.08333333333333333 0.5416666666666666 0
$EndNodes
$Elements
1 24 1 24
2 1 2 24
1 4 1 9 
2 1 7 9 
3 7 4 9 
4 1 4 10 
5 4 8 10 
6 8 1 10 
7 2 3 11 
8 3 7 11 
9 7 2 11 
10 3 4 12 
11 4 7 12 
12 7 3 12 
13 4 5 13 
14 5 8 13 
15 8 4 13 
16 5 6 14 
17 6 8 14 
18 8 5 14 
19 1 2 15 
20 2 7 15 
21 7 1 15 
22 6 1 16 
23 1 8 16 
24 8 6 16 
$EndElements
