$MeshFormat
4.1 0 8
$EndMeshFormat
$PhysicalNames
1
2 1 "Fluid"
$EndPhysicalNames
$Entities
0 0 1 0
1 0 0 0 1 1 0 1 1 0 
$EndEntities
$Nodes
1 77 1 77
2 1 0 77
1
2
3
4
5
6
7
8
9
10
11
12
13
14
15
16
17
18
19
20
21
22
23
24
25
26
27
28
29
30
31
32
33
34
35
36
37
38
39
40
41
42
43
44
45
46
47
48
49
50
51
52
53
54
55
56
57
58
59
60
61
62
63
64
65
66
67
68
69
70
71
72
73
74
75
76
77
0 0 0
1 0 0
1 0.5 0
0.5 0.5 0
0.5 1 0
0 1 0
0.625 0.25 0
0.25 0.625 0
0.25 0.25 0
0.3125 0.125 0
0.5625 0.375 0
0.375 0.5625 0
0.125 0.3125 0
1 0.25 0
0.8125 0.375 0
0.8125 0.125 0
0.75 0.5 0
0.5 0.75 0
0.375 0.8125 0
0.25 1 0
0.125 0.8125 0
0.5 0 0
0 0.5 0
0.375 0.375 0
0.40625 0.3125 0
0.53125 0.4375 0
0.28125 0.1875 0
0.4375 0.25 0
0.125 0.125 0
0.15625 0.0625 0
0.46875 0.1875 0
0.59375 0.3125 0
0.1875 0.28125 0
0.0625 0.15625 0
0.3125 0.40625 0
0.25 0.4375 0
0.4375 0.53125 0
0.3125 0.59375 0
0.1875 0.46875 0
1 0.125 0
0.90625 0.1875 0
0.90625 0.0625 0
0.90625 0.3125 0
0.8125 0.25 0
1 0.375 0
0.90625 0.4375 0
0.71875 0.3125 0
0.71875 0.1875 0
0.875 0.5 0
0.78125 0.4375 0
0.65625 0.4375 0
0.6875 0.375 0
0.625 0.5 0
0.5 0.625 0
0.4375 0.65625 0
0.4375 0.78125 0
0.375 0.6875 0
0.5 0.875 0
0.4375 0.90625 0
0.3125 0.71875 0
0.375 1 0
0.3125 0.90625 0
0.1875 0.90625 0
0.25 0.8125 0
0.125 1 0
0.0625 0.90625 0
0.1875 0.71875 0
0.25 0 0
0.40625 0.0625 0
0.65625 0.0625 0
0.5625 0.125 0
0.75 0 0
0 0.75 0
0.0625 0.65625 0
0.0625 0.40625 0
0.125 0.5625 0
0 0.25 0
$EndNodes
$Elements
1 128 1 128
2 1 2 128
1 4 24 26 
2 24 25 26 
3 24 9 25 
4 26 25 11 
5 9 27 25 
6 27 28 25 
7 27 10 28 
8 25 28 11 
9 9 29 27 
10 29 30 27 
11 29 1 30 
12 27 30 10 
13 11 28 32 
14 28 31 32 
15 28 10 31 
16 32 31 7 
17 1 29 34 
18 29 33 34 
19 29 9 33 
20 34 33 13 
21 9 35 33 
22 35 36 33 
23 35 12 36 
24 33 36 13 
25 9 24 35 
26 24 37 35 
27 24 4 37 
28 35 37 12 
29 13 36 39 
30 36 38 39 
31 36 12 38 
32 39 38 8 
33 2 40 42 
34 40 41 42 
35 40 14 41 
36 42 41 16 
37 14 43 41 
38 43 44 41 
39 43 15 44 
40 41 44 16 
41 14 45 43 
42 45 46 43 
43 45 3 46 
44 43 46 15 
45 16 44 48 
46 44 47 48 
47 44 15 47 
48 48 47 7 
49 3 49 46 
50 49 50 46 
51 49 17 50 
52 46 50 15 
53 17 51 50 
54 51 52 50 
55 51 11 52 
56 50 52 15 
57 17 53 51 
58 53 26 51 
59 53 4 26 
60 51 26 11 
61 15 52 47 
62 52 32 47 
63 52 11 32 
64 47 32 7 
65 4 54 37 
66 54 55 37 
67 54 18 55 
68 37 55 12 
69 18 56 55 
70 56 57 55 
71 56 19 57 
72 55 57 12 
73 18 58 56 
74 58 59 56 
75 58 5 59 
76 56 59 19 
77 12 57 38 
78 57 60 38 
79 57 19 60 
80 38 60 8 
81 5 61 59 
82 61 62 59 
83 61 20 62 
84 59 62 19 
85 20 63 62 
86 63 64 62 
87 63 21 64 
88 62 64 19 
89 20 65 63 
90 65 66 63 
91 65 6 66 
92 63 66 21 
93 19 64 60 
94 64 67 60 
95 64 21 67 
96 60 67 8 
97 1 68 30 
98 68 69 30 
99 68 22 69 
100 30 69 10 
101 22 70 69 
102 70 71 69 
103 70 16 71 
104 69 71 10 
105 22 72 70 
106 72 42 70 
107 72 2 42 
108 70 42 16 
109 10 71 31 
110 71 48 31 
111 71 16 48 
112 31 48 7 
113 6 73 66 
114 73 74 66 
115 73 23 74 
116 66 74 21 
117 23 75 74 
118 75 76 74 
119 75 13 76 
120 74 76 21 
121 23 77 75 
122 77 34 75 
123 77 1 34 
124 75 34 13 
125 21 76 67 
126 76 39 67 
127 76 13 39 
128 67 39 8 
$EndElements
