$MeshFormat
4.1 0 8
$EndMeshFormat
$PhysicalNames
1
2 1 "Fluid"
$EndPhysicalNames
$Entities
0 0 1 0
1 0 0 0 1 1 0 1 1 0 
$EndEntities
$Nodes
1 40 1 40
2 1 0 40
1
2
3
4
5
6
7
8
9
10
11
12
13
14
15
16
17
18
19
20
21
22
23
24
25
26
27
28
29
30
31
32
33
34
35
36
37
38
39
40
0 0 0
1 0 0
1 0.5 0
0.5 0.5 0
0.5 1 0
0 1 0
0.625 0.25 0
0.25 0.625 0
0.375 0.25 0
0.25 0.375 0
0.875 0.25 0
0.7083333333333334 0.4166666666666667 0
0.4166666666666667 0.7083333333333334 0
0.25 0.875 0
0.5416666666666666 0.08333333333333333 0
0.08333333333333333 0.5416666666666666 0
0.2916666666666667 0.25 0
0.3333333333333333 0.1666666666666667 0
0.5 0.3333333333333333 0
0.25 0.2916666666666667 0
0.3333333333333333 0.5 0
0.1666666666666667 0.3333333333333333 0
0.9583333333333334 0.25 0
0.8333333333333334 0.3333333333333333 0
0.8333333333333334 0.1666666666666667 0
0.7361111111111112 0.4722222222222223 0
0.6111111111111112 0.3888888888888889 0
0.7777777777777778 0.3888888888888889 0
0.4722222222222223 0.7361111111111112 0
0.3888888888888889 0.7777777777777778 0
0.3888888888888889 0.6111111111111112 0
0.25 0.9583333333333334 0
0.1666666666666667 0.8333333333333334 0
0.3333333333333333 0.8333333333333334 0
0.5138888888888888 0.02777777777777778 0
0.7222222222222222 0.1111111111111111 0
0.3888888888888888 0.1111111111111111 0
0.02777777777777778 0.5138888888888888 0
0.1111111111111111 0.3888888888888888 0
0.1111111111111111 0.7222222222222222 0
$EndNodes
$Elements
1 72 1 72
2 1 2 72
1 4 1 17 
2 1 9 17 
3 9 4 17 
4 1 7 18 
5 7 9 18 
6 9 1 18 
7 7 4 19 
8 4 9 19 
9 9 7 19 
10 1 4 20 
11 4 10 20 
12 10 1 20 
13 4 8 21 
14 8 10 21 
15 10 4 21 
16 8 1 22 
17 1 10 22 
18 10 8 22 
19 2 3 23 
20 3 11 23 
21 11 2 23 
22 3 7 24 
23 7 11 24 
24 11 3 24 
25 7 2 25 
26 2 11 25 
27 11 7 25 
28 3 4 26 
29 4 12 26 
30 12 3 26 
31 4 7 27 
32 7 12 27 
33 12 4 27 
34 7 3 28 
35 3 12 28 
36 12 7 28 
37 4 5 29 
38 5 13 29 
39 13 4 29 
40 5 8 30 
41 8 13 30 
42 13 5 30 
43 8 4 31 
44 4 13 31 
45 13 8 31 
46 5 6 32 
47 6 14 32 
48 14 5 32 
49 6 8 33 
50 8 14 33 
51 14 6 33 
52 8 5 34 
53 5 14 34 
54 14 8 34 
55 1 2 35 
56 2 15 35 
57 15 1 35 
58 2 7 36 
59 7 15 36 
60 15 2 36 
61 7 1 37 
62 1 15 37 
63 15 7 37 
64 6 1 38 
65 1 16 38 
66 16 6 38 
67 1 8 39 
68 8 16 39 
69 16 1 39 
70 8 6 40 
71 6 16 40 
72 16 8 40 
$EndElements
