$MeshFormat
4.1 0 8
$EndMeshFormat
$PhysicalNames
1
2 1 "Fluid"
$EndPhysicalNames
$Entities
0 0 1 0
1 0 0 0 1 1 0 1 1 0 
$EndEntities
$Nodes
1 112 1 112
2 1 0 112
1
2
3
4
5
6
7
8
9
10
11
12
13
14
15
16
17
18
19
20
21
22
23
24
25
26
27
28
29
30
31
32
33
34
35
36
37
38
39
40
41
42
43
44
45
46
47
48
49
50
51
52
53
54
55
56
57
58
59
60
61
62
63
64
65
66
67
68
69
70
71
72
73
74
75
76
77
78
79
80
81
82
83
84
85
86
87
88
89
90
91
92
93
94
95
96
97
98
99
100
101
102
103
104
105
106
107
108
109
110
111
112
0 0 0
1 0 0
1 0.5 0
0.5 0.5 0
0.5 1 0
0 1 0
0.625 0.25 0
0.25 0.625 0
0.375 0.25 0
0.25 0.375 0
0.875 0.25 0
0.7083333333333334 0.4166666666666667 0
0.4166666666666667 0.7083333333333334 0
0.25 0.875 0
0.5416666666666666 0.08333333333333333 0
0.08333333333333333 0.5416666666666666 0
0.2916666666666667 0.25 0
0.3333333333333333 0.1666666666666667 0
0.5 0.3333333333333333 0
0.25 0.2916666666666667 0
0.3333333333333333 0.5 0
0.1666666666666667 0.3333333333333333 0
0.9583333333333334 0.25 0
0.8333333333333334 0.3333333333333333 0
0.8333333333333334 0.1666666666666667 0
0.7361111111111112 0.4722222222222223 0
0.6111111111111112 0.3888888888888889 0
0.7777777777777778 0.3888888888888889 0
0.4722222222222223 0.7361111111111112 0
0.3888888888888889 0.7777777777777778 0
0.3888888888888889 0.6111111111111112 0
0.25 0.9583333333333334 0
0.1666666666666667 0.8333333333333334 0
0.3333333333333333 0.8333333333333334 0
0.5138888888888888 0.02777777777777778 0
0.7222222222222222 0.1111111111111111 0
0.3888888888888888 0.1111111111111111 0
0.02777777777777778 0.5138888888888888 0
0.1111111111111111 0.3888888888888888 0
0.1111111111111111 0.7222222222222222 0
0.2638888888888889 0.25 0
0.2222222222222222 0.1666666666666667 0
0.3888888888888889 0.3333333333333333 0
0.3194444444444444 0.1388888888888889 0
0.4444444444444444 0.2222222222222222 0
0.2361111111111111 0.1388888888888889 0
0.5416666666666666 0.3611111111111111 0
0.4583333333333333 0.3611111111111111 0
0.5 0.2777777777777777 0
0.25 0.2638888888888889 0
0.3333333333333333 0.3888888888888889 0
0.1666666666666667 0.2222222222222222 0
0.3611111111111111 0.5416666666666666 0
0.2777777777777777 0.5 0
0.3611111111111111 0.4583333333333333 0
0.1388888888888889 0.3194444444444444 0
0.1388888888888889 0.2361111111111111 0
0.2222222222222222 0.4444444444444444 0
0.9861111111111112 0.25 0
0.9444444444444445 0.3333333333333333 0
0.9444444444444445 0.1666666666666667 0
0.8194444444444445 0.3611111111111111 0
0.7777777777777778 0.2777777777777777 0
0.9027777777777778 0.3611111111111111 0
0.8194444444444445 0.1388888888888889 0
0.9027777777777778 0.1388888888888889 0
0.7777777777777778 0.2222222222222222 0
0.7453703703703703 0.4907407407407408 0
0.6481481481481483 0.462962962962963 0
0.8148148148148149 0.462962962962963 0
0.5787037037037037 0.3796296296296296 0
0.6481481481481483 0.3518518518518519 0
0.6064814814814815 0.4351851851851852 0
0.8009259259259259 0.3796296296296296 0
0.8287037037037037 0.4351851851851852 0
0.7037037037037037 0.3518518518518519 0
0.4907407407407408 0.7453703703703703 0
0.462962962962963 0.8148148148148149 0
0.462962962962963 0.6481481481481483 0
0.3796296296296296 0.8009259259259259 0
0.3518518518518519 0.7037037037037037 0
0.4351851851851852 0.8287037037037037 0
0.3796296296296296 0.5787037037037037 0
0.4351851851851852 0.6064814814814815 0
0.3518518518518519 0.6481481481481483 0
0.25 0.9861111111111112 0
0.1666666666666667 0.9444444444444445 0
0.3333333333333333 0.9444444444444445 0
0.1388888888888889 0.8194444444444445 0
0.2222222222222222 0.7777777777777778 0
0.1388888888888889 0.9027777777777778 0
0.3611111111111111 0.8194444444444445 0
0.3611111111111111 0.9027777777777778 0
0.2777777777777777 0.7777777777777778 0
0.5046296296296297 0.00925925925925926 0
0.6851851851851851 0.03703703703703703 0
0.3518518518518518 0.03703703703703703 0
0.7824074074074074 0.1203703703703704 0
0.6296296296296297 0.1481481481481481 0
0.7546296296296297 0.06481481481481481 0
0.337962962962963 0.1203703703703704 0
0.3101851851851851 0.06481481481481481 0
0.5185185185185185 0.1481481481481481 0
0.00925925925925926 0.5046296296296297 0
0.03703703703703703 0.3518518518518518 0
0.03703703703703703 0.6851851851851851 0
0.1203703703703704 0.337962962962963 0
0.1481481481481481 0.5185185185185185 0
0.06481481481481481 0.3101851851851851 0
0.1203703703703704 0.7824074074074074 0
0.06481481481481481 0.7546296296296297 0
0.1481481481481481 0.6296296296296297 0
$EndNodes
$Elements
1 216 1 216
2 1 2 216
1 4 1 41 
2 1 17 41 
3 17 4 41 
4 1 9 42 
5 9 17 42 
6 17 1 42 
7 9 4 43 
8 4 17 43 
9 17 9 43 
10 1 7 44 
11 7 18 44 
12 18 1 44 
13 7 9 45 
14 9 18 45 
15 18 7 45 
16 9 1 46 
17 1 18 46 
18 18 9 46 
19 7 4 47 
20 4 19 47 
21 19 7 47 
22 4 9 48 
23 9 19 48 
24 19 4 48 
25 9 7 49 
26 7 19 49 
27 19 9 49 
28 1 4 50 
29 4 20 50 
30 20 1 50 
31 4 10 51 
32 10 20 51 
33 20 4 51 
34 10 1 52 
35 1 20 52 
36 20 10 52 
37 4 8 53 
38 8 21 53 
39 21 4 53 
40 8 10 54 
41 10 21 54 
42 21 8 54 
43 10 4 55 
44 4 21 55 
45 21 10 55 
46 8 1 56 
47 1 22 56 
48 22 8 56 
49 1 10 57 
50 10 22 57 
51 22 1 57 
52 10 8 58 
53 8 22 58 
54 22 10 58 
55 2 3 59 
56 3 23 59 
57 23 2 59 
58 3 11 60 
59 11 23 60 
60 23 3 60 
61 11 2 61 
62 2 23 61 
63 23 11 61 
64 3 7 62 
65 7 24 62 
66 24 3 62 
67 7 11 63 
68 11 24 63 
69 24 7 63 
70 11 3 64 
71 3 24 64 
72 24 11 64 
73 7 2 65 
74 2 25 65 
75 25 7 65 
76 2 11 66 
77 11 25 66 
78 25 2 66 
79 11 7 67 
80 7 25 67 
81 25 11 67 
82 3 4 68 
83 4 26 68 
84 26 3 68 
85 4 12 69 
86 12 26 69 
87 26 4 69 
88 12 3 70 
89 3 26 70 
90 26 12 70 
91 4 7 71 
92 7 27 71 
93 27 4 71 
94 7 12 72 
95 12 27 72 
96 27 7 72 
97 12 4 73 
98 4 27 73 
99 27 12 73 
100 7 3 74 
101 3 28 74 
102 28 7 74 
103 3 12 75 
104 12 28 75 
105 28 3 75 
106 12 7 76 
107 7 28 76 
108 28 12 76 
109 4 5 77 
110 5 29 77 
111 29 4 77 
112 5 13 78 
113 13 29 78 
114 29 5 78 
115 13 4 79 
116 4 29 79 
117 29 13 79 
118 5 8 80 
119 8 30 80 
120 30 5 80 
121 8 13 81 
122 13 30 81 
123 30 8 81 
124 13 5 82 
125 5 30 82 
126 30 13 82 
127 8 4 83 
128 4 31 83 
129 31 8 83 
130 4 13 84 
131 13 31 84 
132 31 4 84 
133 13 8 85 
134 8 31 85 
135 31 13 85 
136 5 6 86 
137 6 32 86 
138 32 5 86 
139 6 14 87 
140 14 32 87 
141 32 6 87 
142 14 5 88 
143 5 32 88 
144 32 14 88 
145 6 8 89 
146 8 33 89 
147 33 6 89 
148 8 14 90 
149 14 33 90 
150 33 8 90 
151 14 6 91 
152 6 33 91 
153 33 14 91 
154 8 5 92 
155 5 34 92 
156 34 8 92 
157 5 14 93 
158 14 34 93 
159 34 5 93 
160 14 8 94 
161 8 34 94 
162 34 14 94 
163 1 2 95 
164 2 35 95 
165 35 1 95 
166 2 15 96 
167 15 35 96 
168 35 2 96 
169 15 1 97 
170 1 35 97 
171 35 15 97 
172 2 7 98 
173 7 36 98 
174 36 2 98 
175 7 15 99 
176 15 36 99 
177 36 7 99 
178 15 2 100 
179 2 36 100 
180 36 15 100 
181 7 1 101 
182 1 37 101 
183 37 7 101 
184 1 15 102 
185 15 37 102 
186 37 1 102 
187 15 7 103 
188 7 37 103 
189 37 15 103 
190 6 1 104 
191 1 38 104 
192 38 6 104 
193 1 16 105 
194 16 38 105 
195 38 1 105 
196 16 6 106 
197 6 38 106 
198 38 16 106 
199 1 8 107 
200 8 39 107 
201 39 1 107 
202 8 16 108 
203 16 39 108 
204 39 8 108 
205 16 1 109 
206 1 39 109 
207 39 16 109 
208 8 6 110 
209 6 40 110 
210 40 8 110 
211 6 16 111 
212 16 40 111 
213 40 6 111 
214 16 8 112 
215 8 40 112 
216 40 16 112 
$EndElements
