$MeshFormat
4.1 0 8
$EndMeshFormat
$PhysicalNames
1
2 1 "Fluid"
$EndPhysicalNames
$Entities
0 0 1 0
1 0 0 0 1 1 0 1 1 0 
$EndEntities
$Nodes
1 1073 1 1073
2 1 0 1073
1
2
3
4
5
6
7
8
9
10
11
12
13
14
15
16
17
18
19
20
21
22
23
24
25
26
27
28
29
30
31
32
33
34
35
36
37
38
39
40
41
42
43
44
45
46
47
48
49
50
51
52
53
54
55
56
57
58
59
60
61
62
63
64
65
66
67
68
69
70
71
72
73
74
75
76
77
78
79
80
81
82
83
84
85
86
87
88
89
90
91
92
93
94
95
96
97
98
99
100
101
102
103
104
105
106
107
108
109
110
111
112
113
114
115
116
117
118
119
120
121
122
123
124
125
126
127
128
129
130
131
132
133
134
135
136
137
138
139
140
141
142
143
144
145
146
147
148
149
150
151
152
153
154
155
156
157
158
159
160
161
162
163
164
165
166
167
168
169
170
171
172
173
174
175
176
177
178
179
180
181
182
183
184
185
186
187
188
189
190
191
192
193
194
195
196
197
198
199
200
201
202
203
204
205
206
207
208
209
210
211
212
213
214
215
216
217
218
219
220
221
222
223
224
225
226
227
228
229
230
231
232
233
234
235
236
237
238
239
240
241
242
243
244
245
246
247
248
249
250
251
252
253
254
255
256
257
258
259
260
261
262
263
264
265
266
267
268
269
270
271
272
273
274
275
276
277
278
279
280
281
282
283
284
285
286
287
288
289
290
291
292
293
294
295
296
297
298
299
300
301
302
303
304
305
306
307
308
309
310
311
312
313
314
315
316
317
318
319
320
321
322
323
324
325
326
327
328
329
330
331
332
333
334
335
336
337
338
339
340
341
342
343
344
345
346
347
348
349
350
351
352
353
354
355
356
357
358
359
360
361
362
363
364
365
366
367
368
369
370
371
372
373
374
375
376
377
378
379
380
381
382
383
384
385
386
387
388
389
390
391
392
393
394
395
396
397
398
399
400
401
402
403
404
405
406
407
408
409
410
411
412
413
414
415
416
417
418
419
420
421
422
423
424
425
426
427
428
429
430
431
432
433
434
435
436
437
438
439
440
441
442
443
444
445
446
447
448
449
450
451
452
453
454
455
456
457
458
459
460
461
462
463
464
465
466
467
468
469
470
471
472
473
474
475
476
477
478
479
480
481
482
483
484
485
486
487
488
489
490
491
492
493
494
495
496
497
498
499
500
501
502
503
504
505
506
507
508
509
510
511
512
513
514
515
516
517
518
519
520
521
522
523
524
525
526
527
528
529
530
531
532
533
534
535
536
537
538
539
540
541
542
543
544
545
546
547
548
549
550
551
552
553
554
555
556
557
558
559
560
561
562
563
564
565
566
567
568
569
570
571
572
573
574
575
576
577
578
579
580
581
582
583
584
585
586
587
588
589
590
591
592
593
594
595
596
597
598
599
600
601
602
603
604
605
606
607
608
609
610
611
612
613
614
615
616
617
618
619
620
621
622
623
624
625
626
627
628
629
630
631
632
633
634
635
636
637
638
639
640
641
642
643
644
645
646
647
648
649
650
651
652
653
654
655
656
657
658
659
660
661
662
663
664
665
666
667
668
669
670
671
672
673
674
675
676
677
678
679
680
681
682
683
684
685
686
687
688
689
690
691
692
693
694
695
696
697
698
699
700
701
702
703
704
705
706
707
708
709
710
711
712
713
714
715
716
717
718
719
720
721
722
723
724
725
726
727
728
729
730
731
732
733
734
735
736
737
738
739
740
741
742
743
744
745
746
747
748
749
750
751
752
753
754
755
756
757
758
759
760
761
762
763
764
765
766
767
768
769
770
771
772
773
774
775
776
777
778
779
780
781
782
783
784
785
786
787
788
789
790
791
792
793
794
795
796
797
798
799
800
801
802
803
804
805
806
807
808
809
810
811
812
813
814
815
816
817
818
819
820
821
822
823
824
825
826
827
828
829
830
831
832
833
834
835
836
837
838
839
840
841
842
843
844
845
846
847
848
849
850
851
852
853
854
855
856
857
858
859
860
861
862
863
864
865
866
867
868
869
870
871
872
873
874
875
876
877
878
879
880
881
882
883
884
885
886
887
888
889
890
891
892
893
894
895
896
897
898
899
900
901
902
903
904
905
906
907
908
909
910
911
912
913
914
915
916
917
918
919
920
921
922
923
924
925
926
927
928
929
930
931
932
933
934
935
936
937
938
939
940
941
942
943
944
945
946
947
948
949
950
951
952
953
954
955
956
957
958
959
960
961
962
963
964
965
966
967
968
969
970
971
972
973
974
975
976
977
978
979
980
981
982
983
984
985
986
987
988
989
990
991
992
993
994
995
996
997
998
999
1000
1001
1002
1003
1004
1005
1006
1007
1008
1009
1010
1011
1012
1013
1014
1015
1016
1017
1018
1019
1020
1021
1022
1023
1024
1025
1026
1027
1028
1029
1030
1031
1032
1033
1034
1035
1036
1037
1038
1039
1040
1041
1042
1043
1044
1045
1046
1047
1048
1049
1050
1051
1052
1053
1054
1055
1056
1057
1058
1059
1060
1061
1062
1063
1064
1065
1066
1067
1068
1069
1070
1071
1072
1073
0 0 0
1 0 0
1 0.5 0
0.5 0.5 0
0.5 1 0
0 1 0
0.625 0.25 0
0.25 0.625 0
0.25 0.25 0
0.3125 0.125 0
0.5625 0.375 0
0.375 0.5625 0
0.125 0.3125 0
1 0.25 0
0.8125 0.375 0
0.8125 0.125 0
0.75 0.5 0
0.5 0.75 0
0.375 0.8125 0
0.25 1 0
0.125 0.8125 0
0.5 0 0
0 0.5 0
0.375 0.375 0
0.40625 0.3125 0
0.53125 0.4375 0
0.28125 0.1875 0
0.4375 0.25 0
0.125 0.125 0
0.15625 0.0625 0
0.46875 0.1875 0
0.59375 0.3125 0
0.1875 0.28125 0
0.0625 0.15625 0
0.3125 0.40625 0
0.25 0.4375 0
0.4375 0.53125 0
0.3125 0.59375 0
0.1875 0.46875 0
1 0.125 0
0.90625 0.1875 0
0.90625 0.0625 0
0.90625 0.3125 0
0.8125 0.25 0
1 0.375 0
0.90625 0.4375 0
0.71875 0.3125 0
0.71875 0.1875 0
0.875 0.5 0
0.78125 0.4375 0
0.65625 0.4375 0
0.6875 0.375 0
0.625 0.5 0
0.5 0.625 0
0.4375 0.65625 0
0.4375 0.78125 0
0.375 0.6875 0
0.5 0.875 0
0.4375 0.90625 0
0.3125 0.71875 0
0.375 1 0
0.3125 0.90625 0
0.1875 0.90625 0
0.25 0.8125 0
0.125 1 0
0.0625 0.90625 0
0.1875 0.71875 0
0.25 0 0
0.40625 0.0625 0
0.65625 0.0625 0
0.5625 0.125 0
0.75 0 0
0 0.75 0
0.0625 0.65625 0
0.0625 0.40625 0
0.125 0.5625 0
0 0.25 0
0.4375 0.4375 0
0.453125 0.40625 0
0.515625 0.46875 0
0.390625 0.34375 0
0.46875 0.375 0
0.3125 0.3125 0
0.328125 0.28125 0
0.484375 0.34375 0
0.546875 0.40625 0
0.265625 0.21875 0
0.34375 0.25 0
0.359375 0.21875 0
0.421875 0.28125 0
0.296875 0.15625 0
0.375 0.1875 0
0.5 0.3125 0
0.1875 0.1875 0
0.203125 0.15625 0
0.140625 0.09375 0
0.21875 0.125 0
0.0625 0.0625 0
0.078125 0.03125 0
0.234375 0.09375 0
0.515625 0.28125 0
0.578125 0.34375 0
0.453125 0.21875 0
0.53125 0.25 0
0.390625 0.15625 0
0.546875 0.21875 0
0.609375 0.28125 0
0.09375 0.140625 0
0.03125 0.078125 0
0.15625 0.203125 0
0.125 0.21875 0
0.21875 0.265625 0
0.15625 0.296875 0
0.09375 0.234375 0
0.28125 0.328125 0
0.25 0.34375 0
0.28125 0.421875 0
0.21875 0.359375 0
0.34375 0.484375 0
0.3125 0.5 0
0.1875 0.375 0
0.34375 0.390625 0
0.40625 0.453125 0
0.375 0.46875 0
0.46875 0.515625 0
0.40625 0.546875 0
0.21875 0.453125 0
0.15625 0.390625 0
0.28125 0.515625 0
0.25 0.53125 0
0.34375 0.578125 0
0.28125 0.609375 0
0.21875 0.546875 0
1 0.0625 0
0.953125 0.09375 0
0.953125 0.03125 0
0.953125 0.15625 0
0.90625 0.125 0
1 0.1875 0
0.953125 0.21875 0
0.859375 0.15625 0
0.859375 0.09375 0
0.953125 0.28125 0
0.90625 0.25 0
0.859375 0.28125 0
0.859375 0.21875 0
0.859375 0.34375 0
0.8125 0.3125 0
0.8125 0.1875 0
1 0.3125 0
0.953125 0.34375 0
0.953125 0.40625 0
0.90625 0.375 0
1 0.4375 0
0.953125 0.46875 0
0.859375 0.40625 0
0.765625 0.21875 0
0.765625 0.15625 0
0.765625 0.28125 0
0.71875 0.25 0
0.765625 0.34375 0
0.671875 0.28125 0
0.671875 0.21875 0
0.9375 0.5 0
0.890625 0.46875 0
0.828125 0.46875 0
0.84375 0.4375 0
0.8125 0.5 0
0.765625 0.46875 0
0.796875 0.40625 0
0.703125 0.46875 0
0.71875 0.4375 0
0.671875 0.40625 0
0.734375 0.40625 0
0.609375 0.40625 0
0.625 0.375 0
0.75 0.375 0
0.6875 0.5 0
0.640625 0.46875 0
0.578125 0.46875 0
0.59375 0.4375 0
0.5625 0.5 0
0.703125 0.34375 0
0.640625 0.34375 0
0.65625 0.3125 0
0.5 0.5625 0
0.46875 0.578125 0
0.46875 0.640625 0
0.4375 0.59375 0
0.5 0.6875 0
0.46875 0.703125 0
0.40625 0.609375 0
0.46875 0.765625 0
0.4375 0.71875 0
0.40625 0.734375 0
0.40625 0.671875 0
0.40625 0.796875 0
0.375 0.75 0
0.375 0.625 0
0.5 0.8125 0
0.46875 0.828125 0
0.46875 0.890625 0
0.4375 0.84375 0
0.5 0.9375 0
0.46875 0.953125 0
0.40625 0.859375 0
0.34375 0.640625 0
0.34375 0.703125 0
0.3125 0.65625 0
0.34375 0.765625 0
0.28125 0.671875 0
0.4375 1 0
0.40625 0.953125 0
0.34375 0.953125 0
0.375 0.90625 0
0.3125 1 0
0.28125 0.953125 0
0.34375 0.859375 0
0.21875 0.953125 0
0.25 0.90625 0
0.21875 0.859375 0
0.28125 0.859375 0
0.15625 0.859375 0
0.1875 0.8125 0
0.3125 0.8125 0
0.1875 1 0
0.15625 0.953125 0
0.09375 0.953125 0
0.125 0.90625 0
0.0625 1 0
0.03125 0.953125 0
0.09375 0.859375 0
0.28125 0.765625 0
0.21875 0.765625 0
0.25 0.71875 0
0.15625 0.765625 0
0.21875 0.671875 0
0.125 0 0
0.203125 0.03125 0
0.328125 0.03125 0
0.28125 0.0625 0
0.375 0 0
0.453125 0.03125 0
0.359375 0.09375 0
0.578125 0.03125 0
0.53125 0.0625 0
0.609375 0.09375 0
0.484375 0.09375 0
0.734375 0.09375 0
0.6875 0.125 0
0.4375 0.125 0
0.625 0 0
0.703125 0.03125 0
0.828125 0.03125 0
0.78125 0.0625 0
0.875 0 0
0.515625 0.15625 0
0.640625 0.15625 0
0.59375 0.1875 0
0 0.875 0
0.03125 0.828125 0
0.03125 0.703125 0
0.0625 0.78125 0
0 0.625 0
0.03125 0.578125 0
0.09375 0.734375 0
0.03125 0.453125 0
0.0625 0.53125 0
0.09375 0.484375 0
0.09375 0.609375 0
0.09375 0.359375 0
0.125 0.4375 0
0.125 0.6875 0
0 0.375 0
0.03125 0.328125 0
0.03125 0.203125 0
0.0625 0.28125 0
0 0.125 0
0.15625 0.640625 0
0.15625 0.515625 0
0.1875 0.59375 0
0.46875 0.46875 0
0.4765625 0.453125 0
0.5078125 0.484375 0
0.4453125 0.421875 0
0.484375 0.4375 0
0.40625 0.40625 0
0.4140625 0.390625 0
0.4921875 0.421875 0
0.5234375 0.453125 0
0.3828125 0.359375 0
0.421875 0.375 0
0.4296875 0.359375 0
0.4609375 0.390625 0
0.3984375 0.328125 0
0.4375 0.34375 0
0.5 0.40625 0
0.34375 0.34375 0
0.3515625 0.328125 0
0.3203125 0.296875 0
0.359375 0.3125 0
0.28125 0.28125 0
0.2890625 0.265625 0
0.3671875 0.296875 0
0.5078125 0.390625 0
0.5390625 0.421875 0
0.4765625 0.359375 0
0.515625 0.375 0
0.4453125 0.328125 0
0.5234375 0.359375 0
0.5546875 0.390625 0
0.2578125 0.234375 0
0.296875 0.25 0
0.3046875 0.234375 0
0.3359375 0.265625 0
0.2734375 0.203125 0
0.3125 0.21875 0
0.375 0.28125 0
0.3203125 0.203125 0
0.3515625 0.234375 0
0.390625 0.25 0
0.3828125 0.265625 0
0.3984375 0.234375 0
0.4296875 0.265625 0
0.4140625 0.296875 0
0.2890625 0.171875 0
0.328125 0.1875 0
0.3359375 0.171875 0
0.3671875 0.203125 0
0.3046875 0.140625 0
0.34375 0.15625 0
0.40625 0.21875 0
0.453125 0.3125 0
0.4609375 0.296875 0
0.4921875 0.328125 0
0.46875 0.28125 0
0.53125 0.34375 0
0.21875 0.21875 0
0.2265625 0.203125 0
0.1953125 0.171875 0
0.234375 0.1875 0
0.15625 0.15625 0
0.1640625 0.140625 0
0.2421875 0.171875 0
0.1328125 0.109375 0
0.171875 0.125 0
0.1796875 0.109375 0
0.2109375 0.140625 0
0.1484375 0.078125 0
0.1875 0.09375 0
0.25 0.15625 0
0.09375 0.09375 0
0.1015625 0.078125 0
0.0703125 0.046875 0
0.109375 0.0625 0
0.03125 0.03125 0
0.0390625 0.015625 0
0.1171875 0.046875 0
0.2578125 0.140625 0
0.2265625 0.109375 0
0.265625 0.125 0
0.1953125 0.078125 0
0.2734375 0.109375 0
0.5390625 0.328125 0
0.5703125 0.359375 0
0.5078125 0.296875 0
0.546875 0.3125 0
0.4765625 0.265625 0
0.5546875 0.296875 0
0.5859375 0.328125 0
0.4453125 0.234375 0
0.484375 0.25 0
0.4921875 0.234375 0
0.5234375 0.265625 0
0.4609375 0.203125 0
0.5 0.21875 0
0.5625 0.28125 0
0.4140625 0.203125 0
0.3828125 0.171875 0
0.421875 0.1875 0
0.3515625 0.140625 0
0.4296875 0.171875 0
0.5703125 0.265625 0
0.6015625 0.296875 0
0.5390625 0.234375 0
0.578125 0.25 0
0.5078125 0.203125 0
0.5859375 0.234375 0
0.6171875 0.265625 0
0.046875 0.0703125 0
0.015625 0.0390625 0
0.078125 0.1015625 0
0.0625 0.109375 0
0.109375 0.1328125 0
0.078125 0.1484375 0
0.046875 0.1171875 0
0.140625 0.1640625 0
0.125 0.171875 0
0.140625 0.2109375 0
0.109375 0.1796875 0
0.171875 0.2421875 0
0.15625 0.25 0
0.09375 0.1875 0
0.171875 0.1953125 0
0.203125 0.2265625 0
0.1875 0.234375 0
0.234375 0.2578125 0
0.203125 0.2734375 0
0.109375 0.2265625 0
0.078125 0.1953125 0
0.140625 0.2578125 0
0.125 0.265625 0
0.171875 0.2890625 0
0.140625 0.3046875 0
0.109375 0.2734375 0
0.265625 0.2890625 0
0.25 0.296875 0
0.265625 0.3359375 0
0.234375 0.3046875 0
0.296875 0.3671875 0
0.28125 0.375 0
0.21875 0.3125 0
0.296875 0.4140625 0
0.265625 0.3828125 0
0.25 0.390625 0
0.234375 0.3515625 0
0.265625 0.4296875 0
0.234375 0.3984375 0
0.203125 0.3203125 0
0.328125 0.4453125 0
0.3125 0.453125 0
0.328125 0.4921875 0
0.296875 0.4609375 0
0.359375 0.5234375 0
0.34375 0.53125 0
0.28125 0.46875 0
0.1875 0.328125 0
0.203125 0.3671875 0
0.171875 0.3359375 0
0.21875 0.40625 0
0.15625 0.34375 0
0.296875 0.3203125 0
0.328125 0.3515625 0
0.3125 0.359375 0
0.359375 0.3828125 0
0.328125 0.3984375 0
0.390625 0.4140625 0
0.375 0.421875 0
0.390625 0.4609375 0
0.359375 0.4296875 0
0.421875 0.4921875 0
0.40625 0.5 0
0.34375 0.4375 0
0.421875 0.4453125 0
0.453125 0.4765625 0
0.4375 0.484375 0
0.484375 0.5078125 0
0.453125 0.5234375 0
0.359375 0.4765625 0
0.390625 0.5078125 0
0.375 0.515625 0
0.421875 0.5390625 0
0.390625 0.5546875 0
0.171875 0.3828125 0
0.140625 0.3515625 0
0.203125 0.4140625 0
0.1875 0.421875 0
0.234375 0.4453125 0
0.203125 0.4609375 0
0.171875 0.4296875 0
0.265625 0.4765625 0
0.25 0.484375 0
0.265625 0.5234375 0
0.234375 0.4921875 0
0.296875 0.5546875 0
0.28125 0.5625 0
0.21875 0.5 0
0.296875 0.5078125 0
0.328125 0.5390625 0
0.3125 0.546875 0
0.359375 0.5703125 0
0.328125 0.5859375 0
0.234375 0.5390625 0
0.203125 0.5078125 0
0.265625 0.5703125 0
0.25 0.578125 0
0.296875 0.6015625 0
0.265625 0.6171875 0
0.234375 0.5859375 0
1 0.03125 0
0.9765625 0.046875 0
0.9765625 0.015625 0
0.9765625 0.078125 0
0.953125 0.0625 0
1 0.09375 0
0.9765625 0.109375 0
0.9296875 0.078125 0
0.9296875 0.046875 0
0.9765625 0.140625 0
0.953125 0.125 0
0.9296875 0.140625 0
0.9296875 0.109375 0
0.9296875 0.171875 0
0.90625 0.15625 0
0.90625 0.09375 0
1 0.15625 0
0.9765625 0.171875 0
0.9765625 0.203125 0
0.953125 0.1875 0
1 0.21875 0
0.9765625 0.234375 0
0.9296875 0.203125 0
0.8828125 0.109375 0
0.8828125 0.078125 0
0.8828125 0.140625 0
0.859375 0.125 0
0.8828125 0.171875 0
0.8359375 0.140625 0
0.8359375 0.109375 0
0.9765625 0.265625 0
0.953125 0.25 0
0.9296875 0.265625 0
0.9296875 0.234375 0
0.9296875 0.296875 0
0.90625 0.28125 0
0.90625 0.21875 0
0.8828125 0.296875 0
0.8828125 0.265625 0
0.859375 0.25 0
0.8828125 0.234375 0
0.8359375 0.265625 0
0.8359375 0.234375 0
0.8828125 0.203125 0
0.8828125 0.328125 0
0.859375 0.3125 0
0.8359375 0.328125 0
0.8359375 0.296875 0
0.8359375 0.359375 0
0.8125 0.34375 0
0.8125 0.28125 0
0.859375 0.1875 0
0.8359375 0.203125 0
0.8359375 0.171875 0
0.8125 0.21875 0
0.8125 0.15625 0
1 0.28125 0
0.9765625 0.296875 0
0.9765625 0.328125 0
0.953125 0.3125 0
1 0.34375 0
0.9765625 0.359375 0
0.9296875 0.328125 0
0.9765625 0.390625 0
0.953125 0.375 0
0.9296875 0.390625 0
0.9296875 0.359375 0
0.9296875 0.421875 0
0.90625 0.40625 0
0.90625 0.34375 0
1 0.40625 0
0.9765625 0.421875 0
0.9765625 0.453125 0
0.953125 0.4375 0
1 0.46875 0
0.9765625 0.484375 0
0.9296875 0.453125 0
0.8828125 0.359375 0
0.8828125 0.390625 0
0.859375 0.375 0
0.8828125 0.421875 0
0.8359375 0.390625 0
0.7890625 0.171875 0
0.7890625 0.140625 0
0.7890625 0.203125 0
0.765625 0.1875 0
0.7890625 0.234375 0
0.7421875 0.203125 0
0.7421875 0.171875 0
0.7890625 0.265625 0
0.765625 0.25 0
0.7421875 0.265625 0
0.7421875 0.234375 0
0.7421875 0.296875 0
0.71875 0.28125 0
0.71875 0.21875 0
0.7890625 0.296875 0
0.7890625 0.328125 0
0.765625 0.3125 0
0.7890625 0.359375 0
0.7421875 0.328125 0
0.6953125 0.234375 0
0.6953125 0.203125 0
0.6953125 0.265625 0
0.671875 0.25 0
0.6953125 0.296875 0
0.6484375 0.265625 0
0.6484375 0.234375 0
0.96875 0.5 0
0.9453125 0.484375 0
0.9140625 0.484375 0
0.921875 0.46875 0
0.90625 0.5 0
0.8828125 0.484375 0
0.8984375 0.453125 0
0.8515625 0.484375 0
0.859375 0.46875 0
0.8359375 0.453125 0
0.8671875 0.453125 0
0.8046875 0.453125 0
0.8125 0.4375 0
0.875 0.4375 0
0.84375 0.5 0
0.8203125 0.484375 0
0.7890625 0.484375 0
0.796875 0.46875 0
0.78125 0.5 0
0.7578125 0.484375 0
0.7734375 0.453125 0
0.8515625 0.421875 0
0.8203125 0.421875 0
0.828125 0.40625 0
0.7890625 0.421875 0
0.8046875 0.390625 0
0.7265625 0.484375 0
0.734375 0.46875 0
0.7109375 0.453125 0
0.7421875 0.453125 0
0.6796875 0.453125 0
0.6875 0.4375 0
0.75 0.4375 0
0.6640625 0.421875 0
0.6953125 0.421875 0
0.703125 0.40625 0
0.7265625 0.421875 0
0.6796875 0.390625 0
0.7109375 0.390625 0
0.7578125 0.421875 0
0.6328125 0.421875 0
0.640625 0.40625 0
0.6171875 0.390625 0
0.6484375 0.390625 0
0.5859375 0.390625 0
0.59375 0.375 0
0.65625 0.375 0
0.765625 0.40625 0
0.7421875 0.390625 0
0.7734375 0.390625 0
0.71875 0.375 0
0.78125 0.375 0
0.71875 0.5 0
0.6953125 0.484375 0
0.6640625 0.484375 0
0.671875 0.46875 0
0.65625 0.5 0
0.6328125 0.484375 0
0.6484375 0.453125 0
0.6015625 0.484375 0
0.609375 0.46875 0
0.5859375 0.453125 0
0.6171875 0.453125 0
0.5546875 0.453125 0
0.5625 0.4375 0
0.625 0.4375 0
0.59375 0.5 0
0.5703125 0.484375 0
0.5390625 0.484375 0
0.546875 0.46875 0
0.53125 0.5 0
0.6015625 0.421875 0
0.5703125 0.421875 0
0.578125 0.40625 0
0.7578125 0.359375 0
0.7265625 0.359375 0
0.734375 0.34375 0
0.6953125 0.359375 0
0.7109375 0.328125 0
0.6640625 0.359375 0
0.671875 0.34375 0
0.6484375 0.328125 0
0.6796875 0.328125 0
0.6171875 0.328125 0
0.625 0.3125 0
0.6875 0.3125 0
0.6328125 0.359375 0
0.6015625 0.359375 0
0.609375 0.34375 0
0.6640625 0.296875 0
0.6328125 0.296875 0
0.640625 0.28125 0
0.5 0.53125 0
0.484375 0.5390625 0
0.484375 0.5703125 0
0.46875 0.546875 0
0.5 0.59375 0
0.484375 0.6015625 0
0.453125 0.5546875 0
0.484375 0.6328125 0
0.46875 0.609375 0
0.453125 0.6171875 0
0.453125 0.5859375 0
0.453125 0.6484375 0
0.4375 0.625 0
0.4375 0.5625 0
0.5 0.65625 0
0.484375 0.6640625 0
0.484375 0.6953125 0
0.46875 0.671875 0
0.5 0.71875 0
0.484375 0.7265625 0
0.453125 0.6796875 0
0.421875 0.5703125 0
0.421875 0.6015625 0
0.40625 0.578125 0
0.421875 0.6328125 0
0.390625 0.5859375 0
0.484375 0.7578125 0
0.46875 0.734375 0
0.453125 0.7421875 0
0.453125 0.7109375 0
0.453125 0.7734375 0
0.4375 0.75 0
0.4375 0.6875 0
0.421875 0.7578125 0
0.421875 0.7265625 0
0.40625 0.703125 0
0.421875 0.6953125 0
0.390625 0.7109375 0
0.390625 0.6796875 0
0.421875 0.6640625 0
0.421875 0.7890625 0
0.40625 0.765625 0
0.390625 0.7734375 0
0.390625 0.7421875 0
0.390625 0.8046875 0
0.375 0.78125 0
0.375 0.71875 0
0.40625 0.640625 0
0.390625 0.6484375 0
0.390625 0.6171875 0
0.375 0.65625 0
0.375 0.59375 0
0.5 0.78125 0
0.484375 0.7890625 0
0.484375 0.8203125 0
0.46875 0.796875 0
0.5 0.84375 0
0.484375 0.8515625 0
0.453125 0.8046875 0
0.484375 0.8828125 0
0.46875 0.859375 0
0.453125 0.8671875 0
0.453125 0.8359375 0
0.453125 0.8984375 0
0.4375 0.875 0
0.4375 0.8125 0
0.5 0.90625 0
0.484375 0.9140625 0
0.484375 0.9453125 0
0.46875 0.921875 0
0.5 0.96875 0
0.484375 0.9765625 0
0.453125 0.9296875 0
0.421875 0.8203125 0
0.421875 0.8515625 0
0.40625 0.828125 0
0.421875 0.8828125 0
0.390625 0.8359375 0
0.359375 0.6015625 0
0.359375 0.6328125 0
0.34375 0.609375 0
0.359375 0.6640625 0
0.328125 0.6171875 0
0.359375 0.6953125 0
0.34375 0.671875 0
0.328125 0.6796875 0
0.328125 0.6484375 0
0.328125 0.7109375 0
0.3125 0.6875 0
0.3125 0.625 0
0.359375 0.7265625 0
0.359375 0.7578125 0
0.34375 0.734375 0
0.359375 0.7890625 0
0.328125 0.7421875 0
0.296875 0.6328125 0
0.296875 0.6640625 0
0.28125 0.640625 0
0.296875 0.6953125 0
0.265625 0.6484375 0
0.46875 1 0
0.453125 0.9765625 0
0.421875 0.9765625 0
0.4375 0.953125 0
0.40625 1 0
0.390625 0.9765625 0
0.421875 0.9296875 0
0.359375 0.9765625 0
0.375 0.953125 0
0.359375 0.9296875 0
0.390625 0.9296875 0
0.328125 0.9296875 0
0.34375 0.90625 0
0.40625 0.90625 0
0.34375 1 0
0.328125 0.9765625 0
0.296875 0.9765625 0
0.3125 0.953125 0
0.28125 1 0
0.265625 0.9765625 0
0.296875 0.9296875 0
0.390625 0.8828125 0
0.359375 0.8828125 0
0.375 0.859375 0
0.328125 0.8828125 0
0.359375 0.8359375 0
0.234375 0.9765625 0
0.25 0.953125 0
0.234375 0.9296875 0
0.265625 0.9296875 0
0.203125 0.9296875 0
0.21875 0.90625 0
0.28125 0.90625 0
0.203125 0.8828125 0
0.234375 0.8828125 0
0.25 0.859375 0
0.265625 0.8828125 0
0.234375 0.8359375 0
0.265625 0.8359375 0
0.296875 0.8828125 0
0.171875 0.8828125 0
0.1875 0.859375 0
0.171875 0.8359375 0
0.203125 0.8359375 0
0.140625 0.8359375 0
0.15625 0.8125 0
0.21875 0.8125 0
0.3125 0.859375 0
0.296875 0.8359375 0
0.328125 0.8359375 0
0.28125 0.8125 0
0.34375 0.8125 0
0.21875 1 0
0.203125 0.9765625 0
0.171875 0.9765625 0
0.1875 0.953125 0
0.15625 1 0
0.140625 0.9765625 0
0.171875 0.9296875 0
0.109375 0.9765625 0
0.125 0.953125 0
0.109375 0.9296875 0
0.140625 0.9296875 0
0.078125 0.9296875 0
0.09375 0.90625 0
0.15625 0.90625 0
0.09375 1 0
0.078125 0.9765625 0
0.046875 0.9765625 0
0.0625 0.953125 0
0.03125 1 0
0.015625 0.9765625 0
0.046875 0.9296875 0
0.140625 0.8828125 0
0.109375 0.8828125 0
0.125 0.859375 0
0.078125 0.8828125 0
0.109375 0.8359375 0
0.328125 0.7890625 0
0.296875 0.7890625 0
0.3125 0.765625 0
0.265625 0.7890625 0
0.296875 0.7421875 0
0.234375 0.7890625 0
0.25 0.765625 0
0.234375 0.7421875 0
0.265625 0.7421875 0
0.203125 0.7421875 0
0.21875 0.71875 0
0.28125 0.71875 0
0.203125 0.7890625 0
0.171875 0.7890625 0
0.1875 0.765625 0
0.140625 0.7890625 0
0.171875 0.7421875 0
0.265625 0.6953125 0
0.234375 0.6953125 0
0.25 0.671875 0
0.203125 0.6953125 0
0.234375 0.6484375 0
0.0625 0 0
0.1015625 0.015625 0
0.1640625 0.015625 0
0.140625 0.03125 0
0.1875 0 0
0.2265625 0.015625 0
0.1796875 0.046875 0
0.2890625 0.015625 0
0.265625 0.03125 0
0.3046875 0.046875 0
0.2421875 0.046875 0
0.3671875 0.046875 0
0.34375 0.0625 0
0.21875 0.0625 0
0.3125 0 0
0.3515625 0.015625 0
0.4140625 0.015625 0
0.390625 0.03125 0
0.4375 0 0
0.4765625 0.015625 0
0.4296875 0.046875 0
0.2578125 0.078125 0
0.3203125 0.078125 0
0.296875 0.09375 0
0.3828125 0.078125 0
0.3359375 0.109375 0
0.5390625 0.015625 0
0.515625 0.03125 0
0.5546875 0.046875 0
0.4921875 0.046875 0
0.6171875 0.046875 0
0.59375 0.0625 0
0.46875 0.0625 0
0.6328125 0.078125 0
0.5703125 0.078125 0
0.546875 0.09375 0
0.5078125 0.078125 0
0.5859375 0.109375 0
0.5234375 0.109375 0
0.4453125 0.078125 0
0.6953125 0.078125 0
0.671875 0.09375 0
0.7109375 0.109375 0
0.6484375 0.109375 0
0.7734375 0.109375 0
0.75 0.125 0
0.625 0.125 0
0.421875 0.09375 0
0.4609375 0.109375 0
0.3984375 0.109375 0
0.5 0.125 0
0.375 0.125 0
0.5625 0 0
0.6015625 0.015625 0
0.6640625 0.015625 0
0.640625 0.03125 0
0.6875 0 0
0.7265625 0.015625 0
0.6796875 0.046875 0
0.7890625 0.015625 0
0.765625 0.03125 0
0.8046875 0.046875 0
0.7421875 0.046875 0
0.8671875 0.046875 0
0.84375 0.0625 0
0.71875 0.0625 0
0.8125 0 0
0.8515625 0.015625 0
0.9140625 0.015625 0
0.890625 0.03125 0
0.9375 0 0
0.7578125 0.078125 0
0.8203125 0.078125 0
0.796875 0.09375 0
0.4140625 0.140625 0
0.4765625 0.140625 0
0.453125 0.15625 0
0.5390625 0.140625 0
0.4921875 0.171875 0
0.6015625 0.140625 0
0.578125 0.15625 0
0.6171875 0.171875 0
0.5546875 0.171875 0
0.6796875 0.171875 0
0.65625 0.1875 0
0.53125 0.1875 0
0.6640625 0.140625 0
0.7265625 0.140625 0
0.703125 0.15625 0
0.5703125 0.203125 0
0.6328125 0.203125 0
0.609375 0.21875 0
0 0.9375 0
0.015625 0.9140625 0
0.015625 0.8515625 0
0.03125 0.890625 0
0 0.8125 0
0.015625 0.7890625 0
0.046875 0.8671875 0
0.015625 0.7265625 0
0.03125 0.765625 0
0.046875 0.7421875 0
0.046875 0.8046875 0
0.046875 0.6796875 0
0.0625 0.71875 0
0.0625 0.84375 0
0 0.6875 0
0.015625 0.6640625 0
0.015625 0.6015625 0
0.03125 0.640625 0
0 0.5625 0
0.015625 0.5390625 0
0.046875 0.6171875 0
0.078125 0.8203125 0
0.078125 0.7578125 0
0.09375 0.796875 0
0.078125 0.6953125 0
0.109375 0.7734375 0
0.015625 0.4765625 0
0.03125 0.515625 0
0.046875 0.4921875 0
0.046875 0.5546875 0
0.046875 0.4296875 0
0.0625 0.46875 0
0.0625 0.59375 0
0.078125 0.4453125 0
0.078125 0.5078125 0
0.09375 0.546875 0
0.078125 0.5703125 0
0.109375 0.5234375 0
0.109375 0.5859375 0
0.078125 0.6328125 0
0.078125 0.3828125 0
0.09375 0.421875 0
0.109375 0.3984375 0
0.109375 0.4609375 0
0.109375 0.3359375 0
0.125 0.375 0
0.125 0.5 0
0.09375 0.671875 0
0.109375 0.6484375 0
0.109375 0.7109375 0
0.125 0.625 0
0.125 0.75 0
0 0.4375 0
0.015625 0.4140625 0
0.015625 0.3515625 0
0.03125 0.390625 0
0 0.3125 0
0.015625 0.2890625 0
0.046875 0.3671875 0
0.015625 0.2265625 0
0.03125 0.265625 0
0.046875 0.2421875 0
0.046875 0.3046875 0
0.046875 0.1796875 0
0.0625 0.21875 0
0.0625 0.34375 0
0 0.1875 0
0.015625 0.1640625 0
0.015625 0.1015625 0
0.03125 0.140625 0
0 0.0625 0
0.078125 0.3203125 0
0.078125 0.2578125 0
0.09375 0.296875 0
0.140625 0.7265625 0
0.140625 0.6640625 0
0.15625 0.703125 0
0.140625 0.6015625 0
0.171875 0.6796875 0
0.140625 0.5390625 0
0.15625 0.578125 0
0.171875 0.5546875 0
0.171875 0.6171875 0
0.171875 0.4921875 0
0.1875 0.53125 0
0.1875 0.65625 0
0.140625 0.4765625 0
0.140625 0.4140625 0
0.15625 0.453125 0
0.203125 0.6328125 0
0.203125 0.5703125 0
0.21875 0.609375 0
$EndNodes
$Elements
1 2048 1 2048
2 1 2 2048
1 4 282 284 
2 282 283 284 
3 282 78 283 
4 284 283 80 
5 78 285 283 
6 285 286 283 
7 285 79 286 
8 283 286 80 
9 78 287 285 
10 287 288 285 
11 287 24 288 
12 285 288 79 
13 80 286 290 
14 286 289 290 
15 286 79 289 
16 290 289 26 
17 24 291 288 
18 291 292 288 
19 291 81 292 
20 288 292 79 
21 81 293 292 
22 293 294 292 
23 293 82 294 
24 292 294 79 
25 81 295 293 
26 295 296 293 
27 295 25 296 
28 293 296 82 
29 79 294 289 
30 294 297 289 
31 294 82 297 
32 289 297 26 
33 24 298 291 
34 298 299 291 
35 298 83 299 
36 291 299 81 
37 83 300 299 
38 300 301 299 
39 300 84 301 
40 299 301 81 
41 83 302 300 
42 302 303 300 
43 302 9 303 
44 300 303 84 
45 81 301 295 
46 301 304 295 
47 301 84 304 
48 295 304 25 
49 26 297 306 
50 297 305 306 
51 297 82 305 
52 306 305 86 
53 82 307 305 
54 307 308 305 
55 307 85 308 
56 305 308 86 
57 82 296 307 
58 296 309 307 
59 296 25 309 
60 307 309 85 
61 86 308 311 
62 308 310 311 
63 308 85 310 
64 311 310 11 
65 9 312 303 
66 312 313 303 
67 312 87 313 
68 303 313 84 
69 87 314 313 
70 314 315 313 
71 314 88 315 
72 313 315 84 
73 87 316 314 
74 316 317 314 
75 316 27 317 
76 314 317 88 
77 84 315 304 
78 315 318 304 
79 315 88 318 
80 304 318 25 
81 27 319 317 
82 319 320 317 
83 319 89 320 
84 317 320 88 
85 89 321 320 
86 321 322 320 
87 321 90 322 
88 320 322 88 
89 89 323 321 
90 323 324 321 
91 323 28 324 
92 321 324 90 
93 88 322 318 
94 322 325 318 
95 322 90 325 
96 318 325 25 
97 27 326 319 
98 326 327 319 
99 326 91 327 
100 319 327 89 
101 91 328 327 
102 328 329 327 
103 328 92 329 
104 327 329 89 
105 91 330 328 
106 330 331 328 
107 330 10 331 
108 328 331 92 
109 89 329 323 
110 329 332 323 
111 329 92 332 
112 323 332 28 
113 25 325 309 
114 325 333 309 
115 325 90 333 
116 309 333 85 
117 90 334 333 
118 334 335 333 
119 334 93 335 
120 333 335 85 
121 90 324 334 
122 324 336 334 
123 324 28 336 
124 334 336 93 
125 85 335 310 
126 335 337 310 
127 335 93 337 
128 310 337 11 
129 9 338 312 
130 338 339 312 
131 338 94 339 
132 312 339 87 
133 94 340 339 
134 340 341 339 
135 340 95 341 
136 339 341 87 
137 94 342 340 
138 342 343 340 
139 342 29 343 
140 340 343 95 
141 87 341 316 
142 341 344 316 
143 341 95 344 
144 316 344 27 
145 29 345 343 
146 345 346 343 
147 345 96 346 
148 343 346 95 
149 96 347 346 
150 347 348 346 
151 347 97 348 
152 346 348 95 
153 96 349 347 
154 349 350 347 
155 349 30 350 
156 347 350 97 
157 95 348 344 
158 348 351 344 
159 348 97 351 
160 344 351 27 
161 29 352 345 
162 352 353 345 
163 352 98 353 
164 345 353 96 
165 98 354 353 
166 354 355 353 
167 354 99 355 
168 353 355 96 
169 98 356 354 
170 356 357 354 
171 356 1 357 
172 354 357 99 
173 96 355 349 
174 355 358 349 
175 355 99 358 
176 349 358 30 
177 27 351 326 
178 351 359 326 
179 351 97 359 
180 326 359 91 
181 97 360 359 
182 360 361 359 
183 360 100 361 
184 359 361 91 
185 97 350 360 
186 350 362 360 
187 350 30 362 
188 360 362 100 
189 91 361 330 
190 361 363 330 
191 361 100 363 
192 330 363 10 
193 11 337 365 
194 337 364 365 
195 337 93 364 
196 365 364 102 
197 93 366 364 
198 366 367 364 
199 366 101 367 
200 364 367 102 
201 93 336 366 
202 336 368 366 
203 336 28 368 
204 366 368 101 
205 102 367 370 
206 367 369 370 
207 367 101 369 
208 370 369 32 
209 28 371 368 
210 371 372 368 
211 371 103 372 
212 368 372 101 
213 103 373 372 
214 373 374 372 
215 373 104 374 
216 372 374 101 
217 103 375 373 
218 375 376 373 
219 375 31 376 
220 373 376 104 
221 101 374 369 
222 374 377 369 
223 374 104 377 
224 369 377 32 
225 28 332 371 
226 332 378 371 
227 332 92 378 
228 371 378 103 
229 92 379 378 
230 379 380 378 
231 379 105 380 
232 378 380 103 
233 92 331 379 
234 331 381 379 
235 331 10 381 
236 379 381 105 
237 103 380 375 
238 380 382 375 
239 380 105 382 
240 375 382 31 
241 32 377 384 
242 377 383 384 
243 377 104 383 
244 384 383 107 
245 104 385 383 
246 385 386 383 
247 385 106 386 
248 383 386 107 
249 104 376 385 
250 376 387 385 
251 376 31 387 
252 385 387 106 
253 107 386 389 
254 386 388 389 
255 386 106 388 
256 389 388 7 
257 1 356 391 
258 356 390 391 
259 356 98 390 
260 391 390 109 
261 98 392 390 
262 392 393 390 
263 392 108 393 
264 390 393 109 
265 98 352 392 
266 352 394 392 
267 352 29 394 
268 392 394 108 
269 109 393 396 
270 393 395 396 
271 393 108 395 
272 396 395 34 
273 29 397 394 
274 397 398 394 
275 397 110 398 
276 394 398 108 
277 110 399 398 
278 399 400 398 
279 399 111 400 
280 398 400 108 
281 110 401 399 
282 401 402 399 
283 401 33 402 
284 399 402 111 
285 108 400 395 
286 400 403 395 
287 400 111 403 
288 395 403 34 
289 29 342 397 
290 342 404 397 
291 342 94 404 
292 397 404 110 
293 94 405 404 
294 405 406 404 
295 405 112 406 
296 404 406 110 
297 94 338 405 
298 338 407 405 
299 338 9 407 
300 405 407 112 
301 110 406 401 
302 406 408 401 
303 406 112 408 
304 401 408 33 
305 34 403 410 
306 403 409 410 
307 403 111 409 
308 410 409 114 
309 111 411 409 
310 411 412 409 
311 411 113 412 
312 409 412 114 
313 111 402 411 
314 402 413 411 
315 402 33 413 
316 411 413 113 
317 114 412 415 
318 412 414 415 
319 412 113 414 
320 415 414 13 
321 9 416 407 
322 416 417 407 
323 416 115 417 
324 407 417 112 
325 115 418 417 
326 418 419 417 
327 418 116 419 
328 417 419 112 
329 115 420 418 
330 420 421 418 
331 420 35 421 
332 418 421 116 
333 112 419 408 
334 419 422 408 
335 419 116 422 
336 408 422 33 
337 35 423 421 
338 423 424 421 
339 423 117 424 
340 421 424 116 
341 117 425 424 
342 425 426 424 
343 425 118 426 
344 424 426 116 
345 117 427 425 
346 427 428 425 
347 427 36 428 
348 425 428 118 
349 116 426 422 
350 426 429 422 
351 426 118 429 
352 422 429 33 
353 35 430 423 
354 430 431 423 
355 430 119 431 
356 423 431 117 
357 119 432 431 
358 432 433 431 
359 432 120 433 
360 431 433 117 
361 119 434 432 
362 434 435 432 
363 434 12 435 
364 432 435 120 
365 117 433 427 
366 433 436 427 
367 433 120 436 
368 427 436 36 
369 33 429 413 
370 429 437 413 
371 429 118 437 
372 413 437 113 
373 118 438 437 
374 438 439 437 
375 438 121 439 
376 437 439 113 
377 118 428 438 
378 428 440 438 
379 428 36 440 
380 438 440 121 
381 113 439 414 
382 439 441 414 
383 439 121 441 
384 414 441 13 
385 9 302 416 
386 302 442 416 
387 302 83 442 
388 416 442 115 
389 83 443 442 
390 443 444 442 
391 443 122 444 
392 442 444 115 
393 83 298 443 
394 298 445 443 
395 298 24 445 
396 443 445 122 
397 115 444 420 
398 444 446 420 
399 444 122 446 
400 420 446 35 
401 24 447 445 
402 447 448 445 
403 447 123 448 
404 445 448 122 
405 123 449 448 
406 449 450 448 
407 449 124 450 
408 448 450 122 
409 123 451 449 
410 451 452 449 
411 451 37 452 
412 449 452 124 
413 122 450 446 
414 450 453 446 
415 450 124 453 
416 446 453 35 
417 24 287 447 
418 287 454 447 
419 287 78 454 
420 447 454 123 
421 78 455 454 
422 455 456 454 
423 455 125 456 
424 454 456 123 
425 78 282 455 
426 282 457 455 
427 282 4 457 
428 455 457 125 
429 123 456 451 
430 456 458 451 
431 456 125 458 
432 451 458 37 
433 35 453 430 
434 453 459 430 
435 453 124 459 
436 430 459 119 
437 124 460 459 
438 460 461 459 
439 460 126 461 
440 459 461 119 
441 124 452 460 
442 452 462 460 
443 452 37 462 
444 460 462 126 
445 119 461 434 
446 461 463 434 
447 461 126 463 
448 434 463 12 
449 13 441 465 
450 441 464 465 
451 441 121 464 
452 465 464 128 
453 121 466 464 
454 466 467 464 
455 466 127 467 
456 464 467 128 
457 121 440 466 
458 440 468 466 
459 440 36 468 
460 466 468 127 
461 128 467 470 
462 467 469 470 
463 467 127 469 
464 470 469 39 
465 36 471 468 
466 471 472 468 
467 471 129 472 
468 468 472 127 
469 129 473 472 
470 473 474 472 
471 473 130 474 
472 472 474 127 
473 129 475 473 
474 475 476 473 
475 475 38 476 
476 473 476 130 
477 127 474 469 
478 474 477 469 
479 474 130 477 
480 469 477 39 
481 36 436 471 
482 436 478 471 
483 436 120 478 
484 471 478 129 
485 120 479 478 
486 479 480 478 
487 479 131 480 
488 478 480 129 
489 120 435 479 
490 435 481 479 
491 435 12 481 
492 479 481 131 
493 129 480 475 
494 480 482 475 
495 480 131 482 
496 475 482 38 
497 39 477 484 
498 477 483 484 
499 477 130 483 
500 484 483 133 
501 130 485 483 
502 485 486 483 
503 485 132 486 
504 483 486 133 
505 130 476 485 
506 476 487 485 
507 476 38 487 
508 485 487 132 
509 133 486 489 
510 486 488 489 
511 486 132 488 
512 489 488 8 
513 2 490 492 
514 490 491 492 
515 490 134 491 
516 492 491 136 
517 134 493 491 
518 493 494 491 
519 493 135 494 
520 491 494 136 
521 134 495 493 
522 495 496 493 
523 495 40 496 
524 493 496 135 
525 136 494 498 
526 494 497 498 
527 494 135 497 
528 498 497 42 
529 40 499 496 
530 499 500 496 
531 499 137 500 
532 496 500 135 
533 137 501 500 
534 501 502 500 
535 501 138 502 
536 500 502 135 
537 137 503 501 
538 503 504 501 
539 503 41 504 
540 501 504 138 
541 135 502 497 
542 502 505 497 
543 502 138 505 
544 497 505 42 
545 40 506 499 
546 506 507 499 
547 506 139 507 
548 499 507 137 
549 139 508 507 
550 508 509 507 
551 508 140 509 
552 507 509 137 
553 139 510 508 
554 510 511 508 
555 510 14 511 
556 508 511 140 
557 137 509 503 
558 509 512 503 
559 509 140 512 
560 503 512 41 
561 42 505 514 
562 505 513 514 
563 505 138 513 
564 514 513 142 
565 138 515 513 
566 515 516 513 
567 515 141 516 
568 513 516 142 
569 138 504 515 
570 504 517 515 
571 504 41 517 
572 515 517 141 
573 142 516 519 
574 516 518 519 
575 516 141 518 
576 519 518 16 
577 14 520 511 
578 520 521 511 
579 520 143 521 
580 511 521 140 
581 143 522 521 
582 522 523 521 
583 522 144 523 
584 521 523 140 
585 143 524 522 
586 524 525 522 
587 524 43 525 
588 522 525 144 
589 140 523 512 
590 523 526 512 
591 523 144 526 
592 512 526 41 
593 43 527 525 
594 527 528 525 
595 527 145 528 
596 525 528 144 
597 145 529 528 
598 529 530 528 
599 529 146 530 
600 528 530 144 
601 145 531 529 
602 531 532 529 
603 531 44 532 
604 529 532 146 
605 144 530 526 
606 530 533 526 
607 530 146 533 
608 526 533 41 
609 43 534 527 
610 534 535 527 
611 534 147 535 
612 527 535 145 
613 147 536 535 
614 536 537 535 
615 536 148 537 
616 535 537 145 
617 147 538 536 
618 538 539 536 
619 538 15 539 
620 536 539 148 
621 145 537 531 
622 537 540 531 
623 537 148 540 
624 531 540 44 
625 41 533 517 
626 533 541 517 
627 533 146 541 
628 517 541 141 
629 146 542 541 
630 542 543 541 
631 542 149 543 
632 541 543 141 
633 146 532 542 
634 532 544 542 
635 532 44 544 
636 542 544 149 
637 141 543 518 
638 543 545 518 
639 543 149 545 
640 518 545 16 
641 14 546 520 
642 546 547 520 
643 546 150 547 
644 520 547 143 
645 150 548 547 
646 548 549 547 
647 548 151 549 
648 547 549 143 
649 150 550 548 
650 550 551 548 
651 550 45 551 
652 548 551 151 
653 143 549 524 
654 549 552 524 
655 549 151 552 
656 524 552 43 
657 45 553 551 
658 553 554 551 
659 553 152 554 
660 551 554 151 
661 152 555 554 
662 555 556 554 
663 555 153 556 
664 554 556 151 
665 152 557 555 
666 557 558 555 
667 557 46 558 
668 555 558 153 
669 151 556 552 
670 556 559 552 
671 556 153 559 
672 552 559 43 
673 45 560 553 
674 560 561 553 
675 560 154 561 
676 553 561 152 
677 154 562 561 
678 562 563 561 
679 562 155 563 
680 561 563 152 
681 154 564 562 
682 564 565 562 
683 564 3 565 
684 562 565 155 
685 152 563 557 
686 563 566 557 
687 563 155 566 
688 557 566 46 
689 43 559 534 
690 559 567 534 
691 559 153 567 
692 534 567 147 
693 153 568 567 
694 568 569 567 
695 568 156 569 
696 567 569 147 
697 153 558 568 
698 558 570 568 
699 558 46 570 
700 568 570 156 
701 147 569 538 
702 569 571 538 
703 569 156 571 
704 538 571 15 
705 16 545 573 
706 545 572 573 
707 545 149 572 
708 573 572 158 
709 149 574 572 
710 574 575 572 
711 574 157 575 
712 572 575 158 
713 149 544 574 
714 544 576 574 
715 544 44 576 
716 574 576 157 
717 158 575 578 
718 575 577 578 
719 575 157 577 
720 578 577 48 
721 44 579 576 
722 579 580 576 
723 579 159 580 
724 576 580 157 
725 159 581 580 
726 581 582 580 
727 581 160 582 
728 580 582 157 
729 159 583 581 
730 583 584 581 
731 583 47 584 
732 581 584 160 
733 157 582 577 
734 582 585 577 
735 582 160 585 
736 577 585 48 
737 44 540 579 
738 540 586 579 
739 540 148 586 
740 579 586 159 
741 148 587 586 
742 587 588 586 
743 587 161 588 
744 586 588 159 
745 148 539 587 
746 539 589 587 
747 539 15 589 
748 587 589 161 
749 159 588 583 
750 588 590 583 
751 588 161 590 
752 583 590 47 
753 48 585 592 
754 585 591 592 
755 585 160 591 
756 592 591 163 
757 160 593 591 
758 593 594 591 
759 593 162 594 
760 591 594 163 
761 160 584 593 
762 584 595 593 
763 584 47 595 
764 593 595 162 
765 163 594 597 
766 594 596 597 
767 594 162 596 
768 597 596 7 
769 3 598 565 
770 598 599 565 
771 598 164 599 
772 565 599 155 
773 164 600 599 
774 600 601 599 
775 600 165 601 
776 599 601 155 
777 164 602 600 
778 602 603 600 
779 602 49 603 
780 600 603 165 
781 155 601 566 
782 601 604 566 
783 601 165 604 
784 566 604 46 
785 49 605 603 
786 605 606 603 
787 605 166 606 
788 603 606 165 
789 166 607 606 
790 607 608 606 
791 607 167 608 
792 606 608 165 
793 166 609 607 
794 609 610 607 
795 609 50 610 
796 607 610 167 
797 165 608 604 
798 608 611 604 
799 608 167 611 
800 604 611 46 
801 49 612 605 
802 612 613 605 
803 612 168 613 
804 605 613 166 
805 168 614 613 
806 614 615 613 
807 614 169 615 
808 613 615 166 
809 168 616 614 
810 616 617 614 
811 616 17 617 
812 614 617 169 
813 166 615 609 
814 615 618 609 
815 615 169 618 
816 609 618 50 
817 46 611 570 
818 611 619 570 
819 611 167 619 
820 570 619 156 
821 167 620 619 
822 620 621 619 
823 620 170 621 
824 619 621 156 
825 167 610 620 
826 610 622 620 
827 610 50 622 
828 620 622 170 
829 156 621 571 
830 621 623 571 
831 621 170 623 
832 571 623 15 
833 17 624 617 
834 624 625 617 
835 624 171 625 
836 617 625 169 
837 171 626 625 
838 626 627 625 
839 626 172 627 
840 625 627 169 
841 171 628 626 
842 628 629 626 
843 628 51 629 
844 626 629 172 
845 169 627 618 
846 627 630 618 
847 627 172 630 
848 618 630 50 
849 51 631 629 
850 631 632 629 
851 631 173 632 
852 629 632 172 
853 173 633 632 
854 633 634 632 
855 633 174 634 
856 632 634 172 
857 173 635 633 
858 635 636 633 
859 635 52 636 
860 633 636 174 
861 172 634 630 
862 634 637 630 
863 634 174 637 
864 630 637 50 
865 51 638 631 
866 638 639 631 
867 638 175 639 
868 631 639 173 
869 175 640 639 
870 640 641 639 
871 640 176 641 
872 639 641 173 
873 175 642 640 
874 642 643 640 
875 642 11 643 
876 640 643 176 
877 173 641 635 
878 641 644 635 
879 641 176 644 
880 635 644 52 
881 50 637 622 
882 637 645 622 
883 637 174 645 
884 622 645 170 
885 174 646 645 
886 646 647 645 
887 646 177 647 
888 645 647 170 
889 174 636 646 
890 636 648 646 
891 636 52 648 
892 646 648 177 
893 170 647 623 
894 647 649 623 
895 647 177 649 
896 623 649 15 
897 17 650 624 
898 650 651 624 
899 650 178 651 
900 624 651 171 
901 178 652 651 
902 652 653 651 
903 652 179 653 
904 651 653 171 
905 178 654 652 
906 654 655 652 
907 654 53 655 
908 652 655 179 
909 171 653 628 
910 653 656 628 
911 653 179 656 
912 628 656 51 
913 53 657 655 
914 657 658 655 
915 657 180 658 
916 655 658 179 
917 180 659 658 
918 659 660 658 
919 659 181 660 
920 658 660 179 
921 180 661 659 
922 661 662 659 
923 661 26 662 
924 659 662 181 
925 179 660 656 
926 660 663 656 
927 660 181 663 
928 656 663 51 
929 53 664 657 
930 664 665 657 
931 664 182 665 
932 657 665 180 
933 182 666 665 
934 666 667 665 
935 666 80 667 
936 665 667 180 
937 182 668 666 
938 668 284 666 
939 668 4 284 
940 666 284 80 
941 180 667 661 
942 667 290 661 
943 667 80 290 
944 661 290 26 
945 51 663 638 
946 663 669 638 
947 663 181 669 
948 638 669 175 
949 181 670 669 
950 670 671 669 
951 670 86 671 
952 669 671 175 
953 181 662 670 
954 662 306 670 
955 662 26 306 
956 670 306 86 
957 175 671 642 
958 671 311 642 
959 671 86 311 
960 642 311 11 
961 15 649 589 
962 649 672 589 
963 649 177 672 
964 589 672 161 
965 177 673 672 
966 673 674 672 
967 673 183 674 
968 672 674 161 
969 177 648 673 
970 648 675 673 
971 648 52 675 
972 673 675 183 
973 161 674 590 
974 674 676 590 
975 674 183 676 
976 590 676 47 
977 52 677 675 
978 677 678 675 
979 677 184 678 
980 675 678 183 
981 184 679 678 
982 679 680 678 
983 679 185 680 
984 678 680 183 
985 184 681 679 
986 681 682 679 
987 681 32 682 
988 679 682 185 
989 183 680 676 
990 680 683 676 
991 680 185 683 
992 676 683 47 
993 52 644 677 
994 644 684 677 
995 644 176 684 
996 677 684 184 
997 176 685 684 
998 685 686 684 
999 685 102 686 
1000 684 686 184 
1001 176 643 685 
1002 643 365 685 
1003 643 11 365 
1004 685 365 102 
1005 184 686 681 
1006 686 370 681 
1007 686 102 370 
1008 681 370 32 
1009 47 683 595 
1010 683 687 595 
1011 683 185 687 
1012 595 687 162 
1013 185 688 687 
1014 688 689 687 
1015 688 107 689 
1016 687 689 162 
1017 185 682 688 
1018 682 384 688 
1019 682 32 384 
1020 688 384 107 
1021 162 689 596 
1022 689 389 596 
1023 689 107 389 
1024 596 389 7 
1025 4 690 457 
1026 690 691 457 
1027 690 186 691 
1028 457 691 125 
1029 186 692 691 
1030 692 693 691 
1031 692 187 693 
1032 691 693 125 
1033 186 694 692 
1034 694 695 692 
1035 694 54 695 
1036 692 695 187 
1037 125 693 458 
1038 693 696 458 
1039 693 187 696 
1040 458 696 37 
1041 54 697 695 
1042 697 698 695 
1043 697 188 698 
1044 695 698 187 
1045 188 699 698 
1046 699 700 698 
1047 699 189 700 
1048 698 700 187 
1049 188 701 699 
1050 701 702 699 
1051 701 55 702 
1052 699 702 189 
1053 187 700 696 
1054 700 703 696 
1055 700 189 703 
1056 696 703 37 
1057 54 704 697 
1058 704 705 697 
1059 704 190 705 
1060 697 705 188 
1061 190 706 705 
1062 706 707 705 
1063 706 191 707 
1064 705 707 188 
1065 190 708 706 
1066 708 709 706 
1067 708 18 709 
1068 706 709 191 
1069 188 707 701 
1070 707 710 701 
1071 707 191 710 
1072 701 710 55 
1073 37 703 462 
1074 703 711 462 
1075 703 189 711 
1076 462 711 126 
1077 189 712 711 
1078 712 713 711 
1079 712 192 713 
1080 711 713 126 
1081 189 702 712 
1082 702 714 712 
1083 702 55 714 
1084 712 714 192 
1085 126 713 463 
1086 713 715 463 
1087 713 192 715 
1088 463 715 12 
1089 18 716 709 
1090 716 717 709 
1091 716 193 717 
1092 709 717 191 
1093 193 718 717 
1094 718 719 717 
1095 718 194 719 
1096 717 719 191 
1097 193 720 718 
1098 720 721 718 
1099 720 56 721 
1100 718 721 194 
1101 191 719 710 
1102 719 722 710 
1103 719 194 722 
1104 710 722 55 
1105 56 723 721 
1106 723 724 721 
1107 723 195 724 
1108 721 724 194 
1109 195 725 724 
1110 725 726 724 
1111 725 196 726 
1112 724 726 194 
1113 195 727 725 
1114 727 728 725 
1115 727 57 728 
1116 725 728 196 
1117 194 726 722 
1118 726 729 722 
1119 726 196 729 
1120 722 729 55 
1121 56 730 723 
1122 730 731 723 
1123 730 197 731 
1124 723 731 195 
1125 197 732 731 
1126 732 733 731 
1127 732 198 733 
1128 731 733 195 
1129 197 734 732 
1130 734 735 732 
1131 734 19 735 
1132 732 735 198 
1133 195 733 727 
1134 733 736 727 
1135 733 198 736 
1136 727 736 57 
1137 55 729 714 
1138 729 737 714 
1139 729 196 737 
1140 714 737 192 
1141 196 738 737 
1142 738 739 737 
1143 738 199 739 
1144 737 739 192 
1145 196 728 738 
1146 728 740 738 
1147 728 57 740 
1148 738 740 199 
1149 192 739 715 
1150 739 741 715 
1151 739 199 741 
1152 715 741 12 
1153 18 742 716 
1154 742 743 716 
1155 742 200 743 
1156 716 743 193 
1157 200 744 743 
1158 744 745 743 
1159 744 201 745 
1160 743 745 193 
1161 200 746 744 
1162 746 747 744 
1163 746 58 747 
1164 744 747 201 
1165 193 745 720 
1166 745 748 720 
1167 745 201 748 
1168 720 748 56 
1169 58 749 747 
1170 749 750 747 
1171 749 202 750 
1172 747 750 201 
1173 202 751 750 
1174 751 752 750 
1175 751 203 752 
1176 750 752 201 
1177 202 753 751 
1178 753 754 751 
1179 753 59 754 
1180 751 754 203 
1181 201 752 748 
1182 752 755 748 
1183 752 203 755 
1184 748 755 56 
1185 58 756 749 
1186 756 757 749 
1187 756 204 757 
1188 749 757 202 
1189 204 758 757 
1190 758 759 757 
1191 758 205 759 
1192 757 759 202 
1193 204 760 758 
1194 760 761 758 
1195 760 5 761 
1196 758 761 205 
1197 202 759 753 
1198 759 762 753 
1199 759 205 762 
1200 753 762 59 
1201 56 755 730 
1202 755 763 730 
1203 755 203 763 
1204 730 763 197 
1205 203 764 763 
1206 764 765 763 
1207 764 206 765 
1208 763 765 197 
1209 203 754 764 
1210 754 766 764 
1211 754 59 766 
1212 764 766 206 
1213 197 765 734 
1214 765 767 734 
1215 765 206 767 
1216 734 767 19 
1217 12 741 481 
1218 741 768 481 
1219 741 199 768 
1220 481 768 131 
1221 199 769 768 
1222 769 770 768 
1223 769 207 770 
1224 768 770 131 
1225 199 740 769 
1226 740 771 769 
1227 740 57 771 
1228 769 771 207 
1229 131 770 482 
1230 770 772 482 
1231 770 207 772 
1232 482 772 38 
1233 57 773 771 
1234 773 774 771 
1235 773 208 774 
1236 771 774 207 
1237 208 775 774 
1238 775 776 774 
1239 775 209 776 
1240 774 776 207 
1241 208 777 775 
1242 777 778 775 
1243 777 60 778 
1244 775 778 209 
1245 207 776 772 
1246 776 779 772 
1247 776 209 779 
1248 772 779 38 
1249 57 736 773 
1250 736 780 773 
1251 736 198 780 
1252 773 780 208 
1253 198 781 780 
1254 781 782 780 
1255 781 210 782 
1256 780 782 208 
1257 198 735 781 
1258 735 783 781 
1259 735 19 783 
1260 781 783 210 
1261 208 782 777 
1262 782 784 777 
1263 782 210 784 
1264 777 784 60 
1265 38 779 487 
1266 779 785 487 
1267 779 209 785 
1268 487 785 132 
1269 209 786 785 
1270 786 787 785 
1271 786 211 787 
1272 785 787 132 
1273 209 778 786 
1274 778 788 786 
1275 778 60 788 
1276 786 788 211 
1277 132 787 488 
1278 787 789 488 
1279 787 211 789 
1280 488 789 8 
1281 5 790 761 
1282 790 791 761 
1283 790 212 791 
1284 761 791 205 
1285 212 792 791 
1286 792 793 791 
1287 792 213 793 
1288 791 793 205 
1289 212 794 792 
1290 794 795 792 
1291 794 61 795 
1292 792 795 213 
1293 205 793 762 
1294 793 796 762 
1295 793 213 796 
1296 762 796 59 
1297 61 797 795 
1298 797 798 795 
1299 797 214 798 
1300 795 798 213 
1301 214 799 798 
1302 799 800 798 
1303 799 215 800 
1304 798 800 213 
1305 214 801 799 
1306 801 802 799 
1307 801 62 802 
1308 799 802 215 
1309 213 800 796 
1310 800 803 796 
1311 800 215 803 
1312 796 803 59 
1313 61 804 797 
1314 804 805 797 
1315 804 216 805 
1316 797 805 214 
1317 216 806 805 
1318 806 807 805 
1319 806 217 807 
1320 805 807 214 
1321 216 808 806 
1322 808 809 806 
1323 808 20 809 
1324 806 809 217 
1325 214 807 801 
1326 807 810 801 
1327 807 217 810 
1328 801 810 62 
1329 59 803 766 
1330 803 811 766 
1331 803 215 811 
1332 766 811 206 
1333 215 812 811 
1334 812 813 811 
1335 812 218 813 
1336 811 813 206 
1337 215 802 812 
1338 802 814 812 
1339 802 62 814 
1340 812 814 218 
1341 206 813 767 
1342 813 815 767 
1343 813 218 815 
1344 767 815 19 
1345 20 816 809 
1346 816 817 809 
1347 816 219 817 
1348 809 817 217 
1349 219 818 817 
1350 818 819 817 
1351 818 220 819 
1352 817 819 217 
1353 219 820 818 
1354 820 821 818 
1355 820 63 821 
1356 818 821 220 
1357 217 819 810 
1358 819 822 810 
1359 819 220 822 
1360 810 822 62 
1361 63 823 821 
1362 823 824 821 
1363 823 221 824 
1364 821 824 220 
1365 221 825 824 
1366 825 826 824 
1367 825 222 826 
1368 824 826 220 
1369 221 827 825 
1370 827 828 825 
1371 827 64 828 
1372 825 828 222 
1373 220 826 822 
1374 826 829 822 
1375 826 222 829 
1376 822 829 62 
1377 63 830 823 
1378 830 831 823 
1379 830 223 831 
1380 823 831 221 
1381 223 832 831 
1382 832 833 831 
1383 832 224 833 
1384 831 833 221 
1385 223 834 832 
1386 834 835 832 
1387 834 21 835 
1388 832 835 224 
1389 221 833 827 
1390 833 836 827 
1391 833 224 836 
1392 827 836 64 
1393 62 829 814 
1394 829 837 814 
1395 829 222 837 
1396 814 837 218 
1397 222 838 837 
1398 838 839 837 
1399 838 225 839 
1400 837 839 218 
1401 222 828 838 
1402 828 840 838 
1403 828 64 840 
1404 838 840 225 
1405 218 839 815 
1406 839 841 815 
1407 839 225 841 
1408 815 841 19 
1409 20 842 816 
1410 842 843 816 
1411 842 226 843 
1412 816 843 219 
1413 226 844 843 
1414 844 845 843 
1415 844 227 845 
1416 843 845 219 
1417 226 846 844 
1418 846 847 844 
1419 846 65 847 
1420 844 847 227 
1421 219 845 820 
1422 845 848 820 
1423 845 227 848 
1424 820 848 63 
1425 65 849 847 
1426 849 850 847 
1427 849 228 850 
1428 847 850 227 
1429 228 851 850 
1430 851 852 850 
1431 851 229 852 
1432 850 852 227 
1433 228 853 851 
1434 853 854 851 
1435 853 66 854 
1436 851 854 229 
1437 227 852 848 
1438 852 855 848 
1439 852 229 855 
1440 848 855 63 
1441 65 856 849 
1442 856 857 849 
1443 856 230 857 
1444 849 857 228 
1445 230 858 857 
1446 858 859 857 
1447 858 231 859 
1448 857 859 228 
1449 230 860 858 
1450 860 861 858 
1451 860 6 861 
1452 858 861 231 
1453 228 859 853 
1454 859 862 853 
1455 859 231 862 
1456 853 862 66 
1457 63 855 830 
1458 855 863 830 
1459 855 229 863 
1460 830 863 223 
1461 229 864 863 
1462 864 865 863 
1463 864 232 865 
1464 863 865 223 
1465 229 854 864 
1466 854 866 864 
1467 854 66 866 
1468 864 866 232 
1469 223 865 834 
1470 865 867 834 
1471 865 232 867 
1472 834 867 21 
1473 19 841 783 
1474 841 868 783 
1475 841 225 868 
1476 783 868 210 
1477 225 869 868 
1478 869 870 868 
1479 869 233 870 
1480 868 870 210 
1481 225 840 869 
1482 840 871 869 
1483 840 64 871 
1484 869 871 233 
1485 210 870 784 
1486 870 872 784 
1487 870 233 872 
1488 784 872 60 
1489 64 873 871 
1490 873 874 871 
1491 873 234 874 
1492 871 874 233 
1493 234 875 874 
1494 875 876 874 
1495 875 235 876 
1496 874 876 233 
1497 234 877 875 
1498 877 878 875 
1499 877 67 878 
1500 875 878 235 
1501 233 876 872 
1502 876 879 872 
1503 876 235 879 
1504 872 879 60 
1505 64 836 873 
1506 836 880 873 
1507 836 224 880 
1508 873 880 234 
1509 224 881 880 
1510 881 882 880 
1511 881 236 882 
1512 880 882 234 
1513 224 835 881 
1514 835 883 881 
1515 835 21 883 
1516 881 883 236 
1517 234 882 877 
1518 882 884 877 
1519 882 236 884 
1520 877 884 67 
1521 60 879 788 
1522 879 885 788 
1523 879 235 885 
1524 788 885 211 
1525 235 886 885 
1526 886 887 885 
1527 886 237 887 
1528 885 887 211 
1529 235 878 886 
1530 878 888 886 
1531 878 67 888 
1532 886 888 237 
1533 211 887 789 
1534 887 889 789 
1535 887 237 889 
1536 789 889 8 
1537 1 890 357 
1538 890 891 357 
1539 890 238 891 
1540 357 891 99 
1541 238 892 891 
1542 892 893 891 
1543 892 239 893 
1544 891 893 99 
1545 238 894 892 
1546 894 895 892 
1547 894 68 895 
1548 892 895 239 
1549 99 893 358 
1550 893 896 358 
1551 893 239 896 
1552 358 896 30 
1553 68 897 895 
1554 897 898 895 
1555 897 240 898 
1556 895 898 239 
1557 240 899 898 
1558 899 900 898 
1559 899 241 900 
1560 898 900 239 
1561 240 901 899 
1562 901 902 899 
1563 901 69 902 
1564 899 902 241 
1565 239 900 896 
1566 900 903 896 
1567 900 241 903 
1568 896 903 30 
1569 68 904 897 
1570 904 905 897 
1571 904 242 905 
1572 897 905 240 
1573 242 906 905 
1574 906 907 905 
1575 906 243 907 
1576 905 907 240 
1577 242 908 906 
1578 908 909 906 
1579 908 22 909 
1580 906 909 243 
1581 240 907 901 
1582 907 910 901 
1583 907 243 910 
1584 901 910 69 
1585 30 903 362 
1586 903 911 362 
1587 903 241 911 
1588 362 911 100 
1589 241 912 911 
1590 912 913 911 
1591 912 244 913 
1592 911 913 100 
1593 241 902 912 
1594 902 914 912 
1595 902 69 914 
1596 912 914 244 
1597 100 913 363 
1598 913 915 363 
1599 913 244 915 
1600 363 915 10 
1601 22 916 909 
1602 916 917 909 
1603 916 245 917 
1604 909 917 243 
1605 245 918 917 
1606 918 919 917 
1607 918 246 919 
1608 917 919 243 
1609 245 920 918 
1610 920 921 918 
1611 920 70 921 
1612 918 921 246 
1613 243 919 910 
1614 919 922 910 
1615 919 246 922 
1616 910 922 69 
1617 70 923 921 
1618 923 924 921 
1619 923 247 924 
1620 921 924 246 
1621 247 925 924 
1622 925 926 924 
1623 925 248 926 
1624 924 926 246 
1625 247 927 925 
1626 927 928 925 
1627 927 71 928 
1628 925 928 248 
1629 246 926 922 
1630 926 929 922 
1631 926 248 929 
1632 922 929 69 
1633 70 930 923 
1634 930 931 923 
1635 930 249 931 
1636 923 931 247 
1637 249 932 931 
1638 932 933 931 
1639 932 250 933 
1640 931 933 247 
1641 249 934 932 
1642 934 935 932 
1643 934 16 935 
1644 932 935 250 
1645 247 933 927 
1646 933 936 927 
1647 933 250 936 
1648 927 936 71 
1649 69 929 914 
1650 929 937 914 
1651 929 248 937 
1652 914 937 244 
1653 248 938 937 
1654 938 939 937 
1655 938 251 939 
1656 937 939 244 
1657 248 928 938 
1658 928 940 938 
1659 928 71 940 
1660 938 940 251 
1661 244 939 915 
1662 939 941 915 
1663 939 251 941 
1664 915 941 10 
1665 22 942 916 
1666 942 943 916 
1667 942 252 943 
1668 916 943 245 
1669 252 944 943 
1670 944 945 943 
1671 944 253 945 
1672 943 945 245 
1673 252 946 944 
1674 946 947 944 
1675 946 72 947 
1676 944 947 253 
1677 245 945 920 
1678 945 948 920 
1679 945 253 948 
1680 920 948 70 
1681 72 949 947 
1682 949 950 947 
1683 949 254 950 
1684 947 950 253 
1685 254 951 950 
1686 951 952 950 
1687 951 255 952 
1688 950 952 253 
1689 254 953 951 
1690 953 954 951 
1691 953 42 954 
1692 951 954 255 
1693 253 952 948 
1694 952 955 948 
1695 952 255 955 
1696 948 955 70 
1697 72 956 949 
1698 956 957 949 
1699 956 256 957 
1700 949 957 254 
1701 256 958 957 
1702 958 959 957 
1703 958 136 959 
1704 957 959 254 
1705 256 960 958 
1706 960 492 958 
1707 960 2 492 
1708 958 492 136 
1709 254 959 953 
1710 959 498 953 
1711 959 136 498 
1712 953 498 42 
1713 70 955 930 
1714 955 961 930 
1715 955 255 961 
1716 930 961 249 
1717 255 962 961 
1718 962 963 961 
1719 962 142 963 
1720 961 963 249 
1721 255 954 962 
1722 954 514 962 
1723 954 42 514 
1724 962 514 142 
1725 249 963 934 
1726 963 519 934 
1727 963 142 519 
1728 934 519 16 
1729 10 941 381 
1730 941 964 381 
1731 941 251 964 
1732 381 964 105 
1733 251 965 964 
1734 965 966 964 
1735 965 257 966 
1736 964 966 105 
1737 251 940 965 
1738 940 967 965 
1739 940 71 967 
1740 965 967 257 
1741 105 966 382 
1742 966 968 382 
1743 966 257 968 
1744 382 968 31 
1745 71 969 967 
1746 969 970 967 
1747 969 258 970 
1748 967 970 257 
1749 258 971 970 
1750 971 972 970 
1751 971 259 972 
1752 970 972 257 
1753 258 973 971 
1754 973 974 971 
1755 973 48 974 
1756 971 974 259 
1757 257 972 968 
1758 972 975 968 
1759 972 259 975 
1760 968 975 31 
1761 71 936 969 
1762 936 976 969 
1763 936 250 976 
1764 969 976 258 
1765 250 977 976 
1766 977 978 976 
1767 977 158 978 
1768 976 978 258 
1769 250 935 977 
1770 935 573 977 
1771 935 16 573 
1772 977 573 158 
1773 258 978 973 
1774 978 578 973 
1775 978 158 578 
1776 973 578 48 
1777 31 975 387 
1778 975 979 387 
1779 975 259 979 
1780 387 979 106 
1781 259 980 979 
1782 980 981 979 
1783 980 163 981 
1784 979 981 106 
1785 259 974 980 
1786 974 592 980 
1787 974 48 592 
1788 980 592 163 
1789 106 981 388 
1790 981 597 388 
1791 981 163 597 
1792 388 597 7 
1793 6 982 861 
1794 982 983 861 
1795 982 260 983 
1796 861 983 231 
1797 260 984 983 
1798 984 985 983 
1799 984 261 985 
1800 983 985 231 
1801 260 986 984 
1802 986 987 984 
1803 986 73 987 
1804 984 987 261 
1805 231 985 862 
1806 985 988 862 
1807 985 261 988 
1808 862 988 66 
1809 73 989 987 
1810 989 990 987 
1811 989 262 990 
1812 987 990 261 
1813 262 991 990 
1814 991 992 990 
1815 991 263 992 
1816 990 992 261 
1817 262 993 991 
1818 993 994 991 
1819 993 74 994 
1820 991 994 263 
1821 261 992 988 
1822 992 995 988 
1823 992 263 995 
1824 988 995 66 
1825 73 996 989 
1826 996 997 989 
1827 996 264 997 
1828 989 997 262 
1829 264 998 997 
1830 998 999 997 
1831 998 265 999 
1832 997 999 262 
1833 264 1000 998 
1834 1000 1001 998 
1835 1000 23 1001 
1836 998 1001 265 
1837 262 999 993 
1838 999 1002 993 
1839 999 265 1002 
1840 993 1002 74 
1841 66 995 866 
1842 995 1003 866 
1843 995 263 1003 
1844 866 1003 232 
1845 263 1004 1003 
1846 1004 1005 1003 
1847 1004 266 1005 
1848 1003 1005 232 
1849 263 994 1004 
1850 994 1006 1004 
1851 994 74 1006 
1852 1004 1006 266 
1853 232 1005 867 
1854 1005 1007 867 
1855 1005 266 1007 
1856 867 1007 21 
1857 23 1008 1001 
1858 1008 1009 1001 
1859 1008 267 1009 
1860 1001 1009 265 
1861 267 1010 1009 
1862 1010 1011 1009 
1863 1010 268 1011 
1864 1009 1011 265 
1865 267 1012 1010 
1866 1012 1013 1010 
1867 1012 75 1013 
1868 1010 1013 268 
1869 265 1011 1002 
1870 1011 1014 1002 
1871 1011 268 1014 
1872 1002 1014 74 
1873 75 1015 1013 
1874 1015 1016 1013 
1875 1015 269 1016 
1876 1013 1016 268 
1877 269 1017 1016 
1878 1017 1018 1016 
1879 1017 270 1018 
1880 1016 1018 268 
1881 269 1019 1017 
1882 1019 1020 1017 
1883 1019 76 1020 
1884 1017 1020 270 
1885 268 1018 1014 
1886 1018 1021 1014 
1887 1018 270 1021 
1888 1014 1021 74 
1889 75 1022 1015 
1890 1022 1023 1015 
1891 1022 271 1023 
1892 1015 1023 269 
1893 271 1024 1023 
1894 1024 1025 1023 
1895 1024 272 1025 
1896 1023 1025 269 
1897 271 1026 1024 
1898 1026 1027 1024 
1899 1026 13 1027 
1900 1024 1027 272 
1901 269 1025 1019 
1902 1025 1028 1019 
1903 1025 272 1028 
1904 1019 1028 76 
1905 74 1021 1006 
1906 1021 1029 1006 
1907 1021 270 1029 
1908 1006 1029 266 
1909 270 1030 1029 
1910 1030 1031 1029 
1911 1030 273 1031 
1912 1029 1031 266 
1913 270 1020 1030 
1914 1020 1032 1030 
1915 1020 76 1032 
1916 1030 1032 273 
1917 266 1031 1007 
1918 1031 1033 1007 
1919 1031 273 1033 
1920 1007 1033 21 
1921 23 1034 1008 
1922 1034 1035 1008 
1923 1034 274 1035 
1924 1008 1035 267 
1925 274 1036 1035 
1926 1036 1037 1035 
1927 1036 275 1037 
1928 1035 1037 267 
1929 274 1038 1036 
1930 1038 1039 1036 
1931 1038 77 1039 
1932 1036 1039 275 
1933 267 1037 1012 
1934 1037 1040 1012 
1935 1037 275 1040 
1936 1012 1040 75 
1937 77 1041 1039 
1938 1041 1042 1039 
1939 1041 276 1042 
1940 1039 1042 275 
1941 276 1043 1042 
1942 1043 1044 1042 
1943 1043 277 1044 
1944 1042 1044 275 
1945 276 1045 1043 
1946 1045 1046 1043 
1947 1045 34 1046 
1948 1043 1046 277 
1949 275 1044 1040 
1950 1044 1047 1040 
1951 1044 277 1047 
1952 1040 1047 75 
1953 77 1048 1041 
1954 1048 1049 1041 
1955 1048 278 1049 
1956 1041 1049 276 
1957 278 1050 1049 
1958 1050 1051 1049 
1959 1050 109 1051 
1960 1049 1051 276 
1961 278 1052 1050 
1962 1052 391 1050 
1963 1052 1 391 
1964 1050 391 109 
1965 276 1051 1045 
1966 1051 396 1045 
1967 1051 109 396 
1968 1045 396 34 
1969 75 1047 1022 
1970 1047 1053 1022 
1971 1047 277 1053 
1972 1022 1053 271 
1973 277 1054 1053 
1974 1054 1055 1053 
1975 1054 114 1055 
1976 1053 1055 271 
1977 277 1046 1054 
1978 1046 410 1054 
1979 1046 34 410 
1980 1054 410 114 
1981 271 1055 1026 
1982 1055 415 1026 
1983 1055 114 415 
1984 1026 415 13 
1985 21 1033 883 
1986 1033 1056 883 
1987 1033 273 1056 
1988 883 1056 236 
1989 273 1057 1056 
1990 1057 1058 1056 
1991 1057 279 1058 
1992 1056 1058 236 
1993 273 1032 1057 
1994 1032 1059 1057 
1995 1032 76 1059 
1996 1057 1059 279 
1997 236 1058 884 
1998 1058 1060 884 
1999 1058 279 1060 
2000 884 1060 67 
2001 76 1061 1059 
2002 1061 1062 1059 
2003 1061 280 1062 
2004 1059 1062 279 
2005 280 1063 1062 
2006 1063 1064 1062 
2007 1063 281 1064 
2008 1062 1064 279 
2009 280 1065 1063 
2010 1065 1066 1063 
2011 1065 39 1066 
2012 1063 1066 281 
2013 279 1064 1060 
2014 1064 1067 1060 
2015 1064 281 1067 
2016 1060 1067 67 
2017 76 1028 1061 
2018 1028 1068 1061 
2019 1028 272 1068 
2020 1061 1068 280 
2021 272 1069 1068 
2022 1069 1070 1068 
2023 1069 128 1070 
2024 1068 1070 280 
2025 272 1027 1069 
2026 1027 465 1069 
2027 1027 13 465 
2028 1069 465 128 
2029 280 1070 1065 
2030 1070 470 1065 
2031 1070 128 470 
2032 1065 470 39 
2033 67 1067 888 
2034 1067 1071 888 
2035 1067 281 1071 
2036 888 1071 237 
2037 281 1072 1071 
2038 1072 1073 1071 
2039 1072 133 1073 
2040 1071 1073 237 
2041 281 1066 1072 
2042 1066 484 1072 
2043 1066 39 484 
2044 1072 484 133 
2045 237 1073 889 
2046 1073 489 889 
2047 1073 133 489 
2048 889 489 8 
$EndElements
