$MeshFormat
4.1 0 8
$EndMeshFormat
$PhysicalNames
1
2 1 "Fluid"
$EndPhysicalNames
$Entities
0 0 1 0
1 0 0 0 1 1 0 1 1 0 
$EndEntities
$Nodes
1 23 1 23
2 1 0 23
1
2
3
4
5
6
7
8
9
10
11
12
13
14
15
16
17
18
19
20
21
22
23
0 0 0
1 0 0
1 0.5 0
0.5 0.5 0
0.5 1 0
0 1 0
0.625 0.25 0
0.25 0.625 0
0.25 0.25 0
0.3125 0.125 0
0.5625 0.375 0
0.375 0.5625 0
0.125 0.3125 0
1 0.25 0
0.8125 0.375 0
0.8125 0.125 0
0.75 0.5 0
0.5 0.75 0
0.375 0.8125 0
0.25 1 0
0.125 0.8125 0
0.5 0 0
0 0.5 0
$EndNodes
$Elements
1 32 1 32
2 1 2 32
1 4 9 11 
2 9 10 11 
3 9 1 10 
4 11 10 7 
5 1 9 13 
6 9 12 13 
7 9 4 12 
8 13 12 8 
9 2 14 16 
10 14 15 16 
11 14 3 15 
12 16 15 7 
13 3 17 15 
14 17 11 15 
15 17 4 11 
16 15 11 7 
17 4 18 12 
18 18 19 12 
19 18 5 19 
20 12 19 8 
21 5 20 19 
22 20 21 19 
23 20 6 21 
24 19 21 8 
25 1 22 10 
26 22 16 10 
27 22 2 16 
28 10 16 7 
29 6 23 21 
30 23 13 21 
31 23 1 13 
32 21 13 8 
$EndElements
