$MeshFormat
4.1 0 8
$EndMeshFormat
$PhysicalNames
1
2 1 "Fluid"
$EndPhysicalNames
$Entities
0 0 1 0
1 0 0 0 1 1 0 1 1 0 
$EndEntities
$Nodes
1 281 1 281
2 1 0 281
1
2
3
4
5
6
7
8
9
10
11
12
13
14
15
16
17
18
19
20
21
22
23
24
25
26
27
28
29
30
31
32
33
34
35
36
37
38
39
40
41
42
43
44
45
46
47
48
49
50
51
52
53
54
55
56
57
58
59
60
61
62
63
64
65
66
67
68
69
70
71
72
73
74
75
76
77
78
79
80
81
82
83
84
85
86
87
88
89
90
91
92
93
94
95
96
97
98
99
100
101
102
103
104
105
106
107
108
109
110
111
112
113
114
115
116
117
118
119
120
121
122
123
124
125
126
127
128
129
130
131
132
133
134
135
136
137
138
139
140
141
142
143
144
145
146
147
148
149
150
151
152
153
154
155
156
157
158
159
160
161
162
163
164
165
166
167
168
169
170
171
172
173
174
175
176
177
178
179
180
181
182
183
184
185
186
187
188
189
190
191
192
193
194
195
196
197
198
199
200
201
202
203
204
205
206
207
208
209
210
211
212
213
214
215
216
217
218
219
220
221
222
223
224
225
226
227
228
229
230
231
232
233
234
235
236
237
238
239
240
241
242
243
244
245
246
247
248
249
250
251
252
253
254
255
256
257
258
259
260
261
262
263
264
265
266
267
268
269
270
271
272
273
274
275
276
277
278
279
280
281
0 0 0
1 0 0
1 0.5 0
0.5 0.5 0
0.5 1 0
0 1 0
0.625 0.25 0
0.25 0.625 0
0.25 0.25 0
0.3125 0.125 0
0.5625 0.375 0
0.375 0.5625 0
0.125 0.3125 0
1 0.25 0
0.8125 0.375 0
0.8125 0.125 0
0.75 0.5 0
0.5 0.75 0
0.375 0.8125 0
0.25 1 0
0.125 0.8125 0
0.5 0 0
0 0.5 0
0.375 0.375 0
0.40625 0.3125 0
0.53125 0.4375 0
0.28125 0.1875 0
0.4375 0.25 0
0.125 0.125 0
0.15625 0.0625 0
0.46875 0.1875 0
0.59375 0.3125 0
0.1875 0.28125 0
0.0625 0.15625 0
0.3125 0.40625 0
0.25 0.4375 0
0.4375 0.53125 0
0.3125 0.59375 0
0.1875 0.46875 0
1 0.125 0
0.90625 0.1875 0
0.90625 0.0625 0
0.90625 0.3125 0
0.8125 0.25 0
1 0.375 0
0.90625 0.4375 0
0.71875 0.3125 0
0.71875 0.1875 0
0.875 0.5 0
0.78125 0.4375 0
0.65625 0.4375 0
0.6875 0.375 0
0.625 0.5 0
0.5 0.625 0
0.4375 0.65625 0
0.4375 0.78125 0
0.375 0.6875 0
0.5 0.875 0
0.4375 0.90625 0
0.3125 0.71875 0
0.375 1 0
0.3125 0.90625 0
0.1875 0.90625 0
0.25 0.8125 0
0.125 1 0
0.0625 0.90625 0
0.1875 0.71875 0
0.25 0 0
0.40625 0.0625 0
0.65625 0.0625 0
0.5625 0.125 0
0.75 0 0
0 0.75 0
0.0625 0.65625 0
0.0625 0.40625 0
0.125 0.5625 0
0 0.25 0
0.4375 0.4375 0
0.453125 0.40625 0
0.515625 0.46875 0
0.390625 0.34375 0
0.46875 0.375 0
0.3125 0.3125 0
0.328125 0.28125 0
0.484375 0.34375 0
0.546875 0.40625 0
0.265625 0.21875 0
0.34375 0.25 0
0.359375 0.21875 0
0.421875 0.28125 0
0.296875 0.15625 0
0.375 0.1875 0
0.5 0.3125 0
0.1875 0.1875 0
0.203125 0.15625 0
0.140625 0.09375 0
0.21875 0.125 0
0.0625 0.0625 0
0.078125 0.03125 0
0.234375 0.09375 0
0.515625 0.28125 0
0.578125 0.34375 0
0.453125 0.21875 0
0.53125 0.25 0
0.390625 0.15625 0
0.546875 0.21875 0
0.609375 0.28125 0
0.09375 0.140625 0
0.03125 0.078125 0
0.15625 0.203125 0
0.125 0.21875 0
0.21875 0.265625 0
0.15625 0.296875 0
0.09375 0.234375 0
0.28125 0.328125 0
0.25 0.34375 0
0.28125 0.421875 0
0.21875 0.359375 0
0.34375 0.484375 0
0.3125 0.5 0
0.1875 0.375 0
0.34375 0.390625 0
0.40625 0.453125 0
0.375 0.46875 0
0.46875 0.515625 0
0.40625 0.546875 0
0.21875 0.453125 0
0.15625 0.390625 0
0.28125 0.515625 0
0.25 0.53125 0
0.34375 0.578125 0
0.28125 0.609375 0
0.21875 0.546875 0
1 0.0625 0
0.953125 0.09375 0
0.953125 0.03125 0
0.953125 0.15625 0
0.90625 0.125 0
1 0.1875 0
0.953125 0.21875 0
0.859375 0.15625 0
0.859375 0.09375 0
0.953125 0.28125 0
0.90625 0.25 0
0.859375 0.28125 0
0.859375 0.21875 0
0.859375 0.34375 0
0.8125 0.3125 0
0.8125 0.1875 0
1 0.3125 0
0.953125 0.34375 0
0.953125 0.40625 0
0.90625 0.375 0
1 0.4375 0
0.953125 0.46875 0
0.859375 0.40625 0
0.765625 0.21875 0
0.765625 0.15625 0
0.765625 0.28125 0
0.71875 0.25 0
0.765625 0.34375 0
0.671875 0.28125 0
0.671875 0.21875 0
0.9375 0.5 0
0.890625 0.46875 0
0.828125 0.46875 0
0.84375 0.4375 0
0.8125 0.5 0
0.765625 0.46875 0
0.796875 0.40625 0
0.703125 0.46875 0
0.71875 0.4375 0
0.671875 0.40625 0
0.734375 0.40625 0
0.609375 0.40625 0
0.625 0.375 0
0.75 0.375 0
0.6875 0.5 0
0.640625 0.46875 0
0.578125 0.46875 0
0.59375 0.4375 0
0.5625 0.5 0
0.703125 0.34375 0
0.640625 0.34375 0
0.65625 0.3125 0
0.5 0.5625 0
0.46875 0.578125 0
0.46875 0.640625 0
0.4375 0.59375 0
0.5 0.6875 0
0.46875 0.703125 0
0.40625 0.609375 0
0.46875 0.765625 0
0.4375 0.71875 0
0.40625 0.734375 0
0.40625 0.671875 0
0.40625 0.796875 0
0.375 0.75 0
0.375 0.625 0
0.5 0.8125 0
0.46875 0.828125 0
0.46875 0.890625 0
0.4375 0.84375 0
0.5 0.9375 0
0.46875 0.953125 0
0.40625 0.859375 0
0.34375 0.640625 0
0.34375 0.703125 0
0.3125 0.65625 0
0.34375 0.765625 0
0.28125 0.671875 0
0.4375 1 0
0.40625 0.953125 0
0.34375 0.953125 0
0.375 0.90625 0
0.3125 1 0
0.28125 0.953125 0
0.34375 0.859375 0
0.21875 0.953125 0
0.25 0.90625 0
0.21875 0.859375 0
0.28125 0.859375 0
0.15625 0.859375 0
0.1875 0.8125 0
0.3125 0.8125 0
0.1875 1 0
0.15625 0.953125 0
0.09375 0.953125 0
0.125 0.90625 0
0.0625 1 0
0.03125 0.953125 0
0.09375 0.859375 0
0.28125 0.765625 0
0.21875 0.765625 0
0.25 0.71875 0
0.15625 0.765625 0
0.21875 0.671875 0
0.125 0 0
0.203125 0.03125 0
0.328125 0.03125 0
0.28125 0.0625 0
0.375 0 0
0.453125 0.03125 0
0.359375 0.09375 0
0.578125 0.03125 0
0.53125 0.0625 0
0.609375 0.09375 0
0.484375 0.09375 0
0.734375 0.09375 0
0.6875 0.125 0
0.4375 0.125 0
0.625 0 0
0.703125 0.03125 0
0.828125 0.03125 0
0.78125 0.0625 0
0.875 0 0
0.515625 0.15625 0
0.640625 0.15625 0
0.59375 0.1875 0
0 0.875 0
0.03125 0.828125 0
0.03125 0.703125 0
0.0625 0.78125 0
0 0.625 0
0.03125 0.578125 0
0.09375 0.734375 0
0.03125 0.453125 0
0.0625 0.53125 0
0.09375 0.484375 0
0.09375 0.609375 0
0.09375 0.359375 0
0.125 0.4375 0
0.125 0.6875 0
0 0.375 0
0.03125 0.328125 0
0.03125 0.203125 0
0.0625 0.28125 0
0 0.125 0
0.15625 0.640625 0
0.15625 0.515625 0
0.1875 0.59375 0
$EndNodes
$Elements
1 512 1 512
2 1 2 512
1 4 78 80 
2 78 79 80 
3 78 24 79 
4 80 79 26 
5 24 81 79 
6 81 82 79 
7 81 25 82 
8 79 82 26 
9 24 83 81 
10 83 84 81 
11 83 9 84 
12 81 84 25 
13 26 82 86 
14 82 85 86 
15 82 25 85 
16 86 85 11 
17 9 87 84 
18 87 88 84 
19 87 27 88 
20 84 88 25 
21 27 89 88 
22 89 90 88 
23 89 28 90 
24 88 90 25 
25 27 91 89 
26 91 92 89 
27 91 10 92 
28 89 92 28 
29 25 90 85 
30 90 93 85 
31 90 28 93 
32 85 93 11 
33 9 94 87 
34 94 95 87 
35 94 29 95 
36 87 95 27 
37 29 96 95 
38 96 97 95 
39 96 30 97 
40 95 97 27 
41 29 98 96 
42 98 99 96 
43 98 1 99 
44 96 99 30 
45 27 97 91 
46 97 100 91 
47 97 30 100 
48 91 100 10 
49 11 93 102 
50 93 101 102 
51 93 28 101 
52 102 101 32 
53 28 103 101 
54 103 104 101 
55 103 31 104 
56 101 104 32 
57 28 92 103 
58 92 105 103 
59 92 10 105 
60 103 105 31 
61 32 104 107 
62 104 106 107 
63 104 31 106 
64 107 106 7 
65 1 98 109 
66 98 108 109 
67 98 29 108 
68 109 108 34 
69 29 110 108 
70 110 111 108 
71 110 33 111 
72 108 111 34 
73 29 94 110 
74 94 112 110 
75 94 9 112 
76 110 112 33 
77 34 111 114 
78 111 113 114 
79 111 33 113 
80 114 113 13 
81 9 115 112 
82 115 116 112 
83 115 35 116 
84 112 116 33 
85 35 117 116 
86 117 118 116 
87 117 36 118 
88 116 118 33 
89 35 119 117 
90 119 120 117 
91 119 12 120 
92 117 120 36 
93 33 118 113 
94 118 121 113 
95 118 36 121 
96 113 121 13 
97 9 83 115 
98 83 122 115 
99 83 24 122 
100 115 122 35 
101 24 123 122 
102 123 124 122 
103 123 37 124 
104 122 124 35 
105 24 78 123 
106 78 125 123 
107 78 4 125 
108 123 125 37 
109 35 124 119 
110 124 126 119 
111 124 37 126 
112 119 126 12 
113 13 121 128 
114 121 127 128 
115 121 36 127 
116 128 127 39 
117 36 129 127 
118 129 130 127 
119 129 38 130 
120 127 130 39 
121 36 120 129 
122 120 131 129 
123 120 12 131 
124 129 131 38 
125 39 130 133 
126 130 132 133 
127 130 38 132 
128 133 132 8 
129 2 134 136 
130 134 135 136 
131 134 40 135 
132 136 135 42 
133 40 137 135 
134 137 138 135 
135 137 41 138 
136 135 138 42 
137 40 139 137 
138 139 140 137 
139 139 14 140 
140 137 140 41 
141 42 138 142 
142 138 141 142 
143 138 41 141 
144 142 141 16 
145 14 143 140 
146 143 144 140 
147 143 43 144 
148 140 144 41 
149 43 145 144 
150 145 146 144 
151 145 44 146 
152 144 146 41 
153 43 147 145 
154 147 148 145 
155 147 15 148 
156 145 148 44 
157 41 146 141 
158 146 149 141 
159 146 44 149 
160 141 149 16 
161 14 150 143 
162 150 151 143 
163 150 45 151 
164 143 151 43 
165 45 152 151 
166 152 153 151 
167 152 46 153 
168 151 153 43 
169 45 154 152 
170 154 155 152 
171 154 3 155 
172 152 155 46 
173 43 153 147 
174 153 156 147 
175 153 46 156 
176 147 156 15 
177 16 149 158 
178 149 157 158 
179 149 44 157 
180 158 157 48 
181 44 159 157 
182 159 160 157 
183 159 47 160 
184 157 160 48 
185 44 148 159 
186 148 161 159 
187 148 15 161 
188 159 161 47 
189 48 160 163 
190 160 162 163 
191 160 47 162 
192 163 162 7 
193 3 164 155 
194 164 165 155 
195 164 49 165 
196 155 165 46 
197 49 166 165 
198 166 167 165 
199 166 50 167 
200 165 167 46 
201 49 168 166 
202 168 169 166 
203 168 17 169 
204 166 169 50 
205 46 167 156 
206 167 170 156 
207 167 50 170 
208 156 170 15 
209 17 171 169 
210 171 172 169 
211 171 51 172 
212 169 172 50 
213 51 173 172 
214 173 174 172 
215 173 52 174 
216 172 174 50 
217 51 175 173 
218 175 176 173 
219 175 11 176 
220 173 176 52 
221 50 174 170 
222 174 177 170 
223 174 52 177 
224 170 177 15 
225 17 178 171 
226 178 179 171 
227 178 53 179 
228 171 179 51 
229 53 180 179 
230 180 181 179 
231 180 26 181 
232 179 181 51 
233 53 182 180 
234 182 80 180 
235 182 4 80 
236 180 80 26 
237 51 181 175 
238 181 86 175 
239 181 26 86 
240 175 86 11 
241 15 177 161 
242 177 183 161 
243 177 52 183 
244 161 183 47 
245 52 184 183 
246 184 185 183 
247 184 32 185 
248 183 185 47 
249 52 176 184 
250 176 102 184 
251 176 11 102 
252 184 102 32 
253 47 185 162 
254 185 107 162 
255 185 32 107 
256 162 107 7 
257 4 186 125 
258 186 187 125 
259 186 54 187 
260 125 187 37 
261 54 188 187 
262 188 189 187 
263 188 55 189 
264 187 189 37 
265 54 190 188 
266 190 191 188 
267 190 18 191 
268 188 191 55 
269 37 189 126 
270 189 192 126 
271 189 55 192 
272 126 192 12 
273 18 193 191 
274 193 194 191 
275 193 56 194 
276 191 194 55 
277 56 195 194 
278 195 196 194 
279 195 57 196 
280 194 196 55 
281 56 197 195 
282 197 198 195 
283 197 19 198 
284 195 198 57 
285 55 196 192 
286 196 199 192 
287 196 57 199 
288 192 199 12 
289 18 200 193 
290 200 201 193 
291 200 58 201 
292 193 201 56 
293 58 202 201 
294 202 203 201 
295 202 59 203 
296 201 203 56 
297 58 204 202 
298 204 205 202 
299 204 5 205 
300 202 205 59 
301 56 203 197 
302 203 206 197 
303 203 59 206 
304 197 206 19 
305 12 199 131 
306 199 207 131 
307 199 57 207 
308 131 207 38 
309 57 208 207 
310 208 209 207 
311 208 60 209 
312 207 209 38 
313 57 198 208 
314 198 210 208 
315 198 19 210 
316 208 210 60 
317 38 209 132 
318 209 211 132 
319 209 60 211 
320 132 211 8 
321 5 212 205 
322 212 213 205 
323 212 61 213 
324 205 213 59 
325 61 214 213 
326 214 215 213 
327 214 62 215 
328 213 215 59 
329 61 216 214 
330 216 217 214 
331 216 20 217 
332 214 217 62 
333 59 215 206 
334 215 218 206 
335 215 62 218 
336 206 218 19 
337 20 219 217 
338 219 220 217 
339 219 63 220 
340 217 220 62 
341 63 221 220 
342 221 222 220 
343 221 64 222 
344 220 222 62 
345 63 223 221 
346 223 224 221 
347 223 21 224 
348 221 224 64 
349 62 222 218 
350 222 225 218 
351 222 64 225 
352 218 225 19 
353 20 226 219 
354 226 227 219 
355 226 65 227 
356 219 227 63 
357 65 228 227 
358 228 229 227 
359 228 66 229 
360 227 229 63 
361 65 230 228 
362 230 231 228 
363 230 6 231 
364 228 231 66 
365 63 229 223 
366 229 232 223 
367 229 66 232 
368 223 232 21 
369 19 225 210 
370 225 233 210 
371 225 64 233 
372 210 233 60 
373 64 234 233 
374 234 235 233 
375 234 67 235 
376 233 235 60 
377 64 224 234 
378 224 236 234 
379 224 21 236 
380 234 236 67 
381 60 235 211 
382 235 237 211 
383 235 67 237 
384 211 237 8 
385 1 238 99 
386 238 239 99 
387 238 68 239 
388 99 239 30 
389 68 240 239 
390 240 241 239 
391 240 69 241 
392 239 241 30 
393 68 242 240 
394 242 243 240 
395 242 22 243 
396 240 243 69 
397 30 241 100 
398 241 244 100 
399 241 69 244 
400 100 244 10 
401 22 245 243 
402 245 246 243 
403 245 70 246 
404 243 246 69 
405 70 247 246 
406 247 248 246 
407 247 71 248 
408 246 248 69 
409 70 249 247 
410 249 250 247 
411 249 16 250 
412 247 250 71 
413 69 248 244 
414 248 251 244 
415 248 71 251 
416 244 251 10 
417 22 252 245 
418 252 253 245 
419 252 72 253 
420 245 253 70 
421 72 254 253 
422 254 255 253 
423 254 42 255 
424 253 255 70 
425 72 256 254 
426 256 136 254 
427 256 2 136 
428 254 136 42 
429 70 255 249 
430 255 142 249 
431 255 42 142 
432 249 142 16 
433 10 251 105 
434 251 257 105 
435 251 71 257 
436 105 257 31 
437 71 258 257 
438 258 259 257 
439 258 48 259 
440 257 259 31 
441 71 250 258 
442 250 158 258 
443 250 16 158 
444 258 158 48 
445 31 259 106 
446 259 163 106 
447 259 48 163 
448 106 163 7 
449 6 260 231 
450 260 261 231 
451 260 73 261 
452 231 261 66 
453 73 262 261 
454 262 263 261 
455 262 74 263 
456 261 263 66 
457 73 264 262 
458 264 265 262 
459 264 23 265 
460 262 265 74 
461 66 263 232 
462 263 266 232 
463 263 74 266 
464 232 266 21 
465 23 267 265 
466 267 268 265 
467 267 75 268 
468 265 268 74 
469 75 269 268 
470 269 270 268 
471 269 76 270 
472 268 270 74 
473 75 271 269 
474 271 272 269 
475 271 13 272 
476 269 272 76 
477 74 270 266 
478 270 273 266 
479 270 76 273 
480 266 273 21 
481 23 274 267 
482 274 275 267 
483 274 77 275 
484 267 275 75 
485 77 276 275 
486 276 277 275 
487 276 34 277 
488 275 277 75 
489 77 278 276 
490 278 109 276 
491 278 1 109 
492 276 109 34 
493 75 277 271 
494 277 114 271 
495 277 34 114 
496 271 114 13 
497 21 273 236 
498 273 279 236 
499 273 76 279 
500 236 279 67 
501 76 280 279 
502 280 281 279 
503 280 39 281 
504 279 281 67 
505 76 272 280 
506 272 128 280 
507 272 13 128 
508 280 128 39 
509 67 281 237 
510 281 133 237 
511 281 39 133 
512 237 133 8 
$EndElements
