$MeshFormat
4.1 0 8
$EndMeshFormat
$PhysicalNames
1
2 1 "Fluid"
$EndPhysicalNames
$Entities
0 0 1 0
1 0 0 0 1 1 0 1 1 0 
$EndEntities
$Nodes
1 328 1 328
2 1 0 328
1
2
3
4
5
6
7
8
9
10
11
12
13
14
15
16
17
18
19
20
21
22
23
24
25
26
27
28
29
30
31
32
33
34
35
36
37
38
39
40
41
42
43
44
45
46
47
48
49
50
51
52
53
54
55
56
57
58
59
60
61
62
63
64
65
66
67
68
69
70
71
72
73
74
75
76
77
78
79
80
81
82
83
84
85
86
87
88
89
90
91
92
93
94
95
96
97
98
99
100
101
102
103
104
105
106
107
108
109
110
111
112
113
114
115
116
117
118
119
120
121
122
123
124
125
126
127
128
129
130
131
132
133
134
135
136
137
138
139
140
141
142
143
144
145
146
147
148
149
150
151
152
153
154
155
156
157
158
159
160
161
162
163
164
165
166
167
168
169
170
171
172
173
174
175
176
177
178
179
180
181
182
183
184
185
186
187
188
189
190
191
192
193
194
195
196
197
198
199
200
201
202
203
204
205
206
207
208
209
210
211
212
213
214
215
216
217
218
219
220
221
222
223
224
225
226
227
228
229
230
231
232
233
234
235
236
237
238
239
240
241
242
243
244
245
246
247
248
249
250
251
252
253
254
255
256
257
258
259
260
261
262
263
264
265
266
267
268
269
270
271
272
273
274
275
276
277
278
279
280
281
282
283
284
285
286
287
288
289
290
291
292
293
294
295
296
297
298
299
300
301
302
303
304
305
306
307
308
309
310
311
312
313
314
315
316
317
318
319
320
321
322
323
324
325
326
327
328
0 0 0
1 0 0
1 0.5 0
0.5 0.5 0
0.5 1 0
0 1 0
0.625 0.25 0
0.25 0.625 0
0.375 0.25 0
0.25 0.375 0
0.875 0.25 0
0.7083333333333334 0.4166666666666667 0
0.4166666666666667 0.7083333333333334 0
0.25 0.875 0
0.5416666666666666 0.08333333333333333 0
0.08333333333333333 0.5416666666666666 0
0.2916666666666667 0.25 0
0.3333333333333333 0.1666666666666667 0
0.5 0.3333333333333333 0
0.25 0.2916666666666667 0
0.3333333333333333 0.5 0
0.1666666666666667 0.3333333333333333 0
0.9583333333333334 0.25 0
0.8333333333333334 0.3333333333333333 0
0.8333333333333334 0.1666666666666667 0
0.7361111111111112 0.4722222222222223 0
0.6111111111111112 0.3888888888888889 0
0.7777777777777778 0.3888888888888889 0
0.4722222222222223 0.7361111111111112 0
0.3888888888888889 0.7777777777777778 0
0.3888888888888889 0.6111111111111112 0
0.25 0.9583333333333334 0
0.1666666666666667 0.8333333333333334 0
0.3333333333333333 0.8333333333333334 0
0.5138888888888888 0.02777777777777778 0
0.7222222222222222 0.1111111111111111 0
0.3888888888888888 0.1111111111111111 0
0.02777777777777778 0.5138888888888888 0
0.1111111111111111 0.3888888888888888 0
0.1111111111111111 0.7222222222222222 0
0.2638888888888889 0.25 0
0.2222222222222222 0.1666666666666667 0
0.3888888888888889 0.3333333333333333 0
0.3194444444444444 0.1388888888888889 0
0.4444444444444444 0.2222222222222222 0
0.2361111111111111 0.1388888888888889 0
0.5416666666666666 0.3611111111111111 0
0.4583333333333333 0.3611111111111111 0
0.5 0.2777777777777777 0
0.25 0.2638888888888889 0
0.3333333333333333 0.3888888888888889 0
0.1666666666666667 0.2222222222222222 0
0.3611111111111111 0.5416666666666666 0
0.2777777777777777 0.5 0
0.3611111111111111 0.4583333333333333 0
0.1388888888888889 0.3194444444444444 0
0.1388888888888889 0.2361111111111111 0
0.2222222222222222 0.4444444444444444 0
0.9861111111111112 0.25 0
0.9444444444444445 0.3333333333333333 0
0.9444444444444445 0.1666666666666667 0
0.8194444444444445 0.3611111111111111 0
0.7777777777777778 0.2777777777777777 0
0.9027777777777778 0.3611111111111111 0
0.8194444444444445 0.1388888888888889 0
0.9027777777777778 0.1388888888888889 0
0.7777777777777778 0.2222222222222222 0
0.7453703703703703 0.4907407407407408 0
0.6481481481481483 0.462962962962963 0
0.8148148148148149 0.462962962962963 0
0.5787037037037037 0.3796296296296296 0
0.6481481481481483 0.3518518518518519 0
0.6064814814814815 0.4351851851851852 0
0.8009259259259259 0.3796296296296296 0
0.8287037037037037 0.4351851851851852 0
0.7037037037037037 0.3518518518518519 0
0.4907407407407408 0.7453703703703703 0
0.462962962962963 0.8148148148148149 0
0.462962962962963 0.6481481481481483 0
0.3796296296296296 0.8009259259259259 0
0.3518518518518519 0.7037037037037037 0
0.4351851851851852 0.8287037037037037 0
0.3796296296296296 0.5787037037037037 0
0.4351851851851852 0.6064814814814815 0
0.3518518518518519 0.6481481481481483 0
0.25 0.9861111111111112 0
0.1666666666666667 0.9444444444444445 0
0.3333333333333333 0.9444444444444445 0
0.1388888888888889 0.8194444444444445 0
0.2222222222222222 0.7777777777777778 0
0.1388888888888889 0.9027777777777778 0
0.3611111111111111 0.8194444444444445 0
0.3611111111111111 0.9027777777777778 0
0.2777777777777777 0.7777777777777778 0
0.5046296296296297 0.00925925925925926 0
0.6851851851851851 0.03703703703703703 0
0.3518518518518518 0.03703703703703703 0
0.7824074074074074 0.1203703703703704 0
0.6296296296296297 0.1481481481481481 0
0.7546296296296297 0.06481481481481481 0
0.337962962962963 0.1203703703703704 0
0.3101851851851851 0.06481481481481481 0
0.5185185185185185 0.1481481481481481 0
0.00925925925925926 0.5046296296296297 0
0.03703703703703703 0.3518518518518518 0
0.03703703703703703 0.6851851851851851 0
0.1203703703703704 0.337962962962963 0
0.1481481481481481 0.5185185185185185 0
0.06481481481481481 0.3101851851851851 0
0.1203703703703704 0.7824074074074074 0
0.06481481481481481 0.7546296296296297 0
0.1481481481481481 0.6296296296296297 0
0.2546296296296296 0.25 0
0.1851851851851852 0.1666666666666667 0
0.3518518518518519 0.3333333333333333 0
0.1990740740740741 0.1388888888888889 0
0.2962962962962963 0.2222222222222222 0
0.1712962962962963 0.1388888888888889 0
0.4212962962962963 0.3611111111111111 0
0.3935185185185185 0.3611111111111111 0
0.3518518518518519 0.2777777777777777 0
0.3148148148148148 0.1296296296296296 0
0.4259259259259259 0.1851851851851852 0
0.2175925925925926 0.1018518518518519 0
0.4814814814814815 0.2407407407407407 0
0.3842592592592592 0.212962962962963 0
0.4675925925925926 0.212962962962963 0
0.2037037037037037 0.1296296296296296 0
0.1898148148148148 0.1018518518518519 0
0.3148148148148148 0.1851851851851852 0
0.5555555555555555 0.3703703703703704 0
0.5138888888888888 0.3981481481481481 0
0.5555555555555555 0.3148148148148148 0
0.4444444444444444 0.3703703703703704 0
0.4444444444444444 0.3148148148148148 0
0.4861111111111111 0.3981481481481481 0
0.5 0.2592592592592592 0
0.5416666666666666 0.287037037037037 0
0.4583333333333333 0.287037037037037 0
0.25 0.2546296296296296 0
0.3333333333333333 0.3518518518518519 0
0.1666666666666667 0.1851851851851852 0
0.3611111111111111 0.4212962962962963 0
0.2777777777777777 0.3518518518518519 0
0.3611111111111111 0.3935185185185185 0
0.1388888888888889 0.1990740740740741 0
0.1388888888888889 0.1712962962962963 0
0.2222222222222222 0.2962962962962963 0
0.3703703703703704 0.5555555555555555 0
0.3148148148148148 0.5555555555555555 0
0.3981481481481481 0.5138888888888888 0
0.2592592592592592 0.5 0
0.287037037037037 0.4583333333333333 0
0.287037037037037 0.5416666666666666 0
0.3703703703703704 0.4444444444444444 0
0.3981481481481481 0.4861111111111111 0
0.3148148148148148 0.4444444444444444 0
0.1296296296296296 0.3148148148148148 0
0.1018518518518519 0.2175925925925926 0
0.1851851851851852 0.4259259259259259 0
0.1296296296296296 0.2037037037037037 0
0.1851851851851852 0.3148148148148148 0
0.1018518518518519 0.1898148148148148 0
0.2407407407407407 0.4814814814814815 0
0.212962962962963 0.4675925925925926 0
0.212962962962963 0.3842592592592592 0
0.9953703703703703 0.25 0
0.9814814814814815 0.3333333333333333 0
0.9814814814814815 0.1666666666666667 0
0.9398148148148149 0.3611111111111111 0
0.925925925925926 0.2777777777777777 0
0.9675925925925927 0.3611111111111111 0
0.9398148148148149 0.1388888888888889 0
0.9675925925925927 0.1388888888888889 0
0.925925925925926 0.2222222222222222 0
0.8148148148148149 0.3703703703703704 0
0.7592592592592594 0.3148148148148148 0
0.8842592592592594 0.3981481481481481 0
0.7592592592592592 0.2592592592592592 0
0.8287037037037037 0.287037037037037 0
0.7453703703703703 0.287037037037037 0
0.9259259259259259 0.3703703703703704 0
0.9120370370370371 0.3981481481481481 0
0.8703703703703703 0.3148148148148148 0
0.8148148148148149 0.1296296296296296 0
0.8842592592592594 0.1018518518518519 0
0.7592592592592594 0.1851851851851852 0
0.9259259259259259 0.1296296296296296 0
0.8703703703703703 0.1851851851851852 0
0.9120370370370371 0.1018518518518519 0
0.7592592592592592 0.2407407407407407 0
0.7453703703703703 0.212962962962963 0
0.8287037037037037 0.212962962962963 0
0.7484567901234568 0.4969135802469136 0
0.6604938271604938 0.4876543209876544 0
0.8271604938271605 0.4876543209876544 0
0.6188271604938272 0.4598765432098766 0
0.697530864197531 0.4506172839506173 0
0.6280864197530865 0.4783950617283951 0
0.8410493827160495 0.4598765432098766 0
0.8503086419753086 0.4783950617283951 0
0.7530864197530865 0.4506172839506173 0
0.5679012345679012 0.3765432098765432 0
0.6049382716049383 0.3395061728395061 0
0.5632716049382717 0.4228395061728394 0
0.660493827160494 0.3395061728395062 0
0.6558641975308643 0.3858024691358025 0
0.6280864197530865 0.3302469135802469 0
0.6049382716049383 0.4506172839506173 0
0.5725308641975309 0.441358024691358 0
0.6419753086419754 0.4135802469135803 0
0.808641975308642 0.3765432098765432 0
0.8595679012345679 0.4228395061728394 0
0.7345679012345679 0.3395061728395061 0
0.8456790123456791 0.4506172839506173 0
0.7716049382716049 0.4135802469135803 0
0.8688271604938271 0.441358024691358 0
0.6790123456790124 0.3395061728395062 0
0.7021604938271605 0.3302469135802469 0
0.7299382716049383 0.3858024691358025 0
0.4969135802469136 0.7484567901234568 0
0.4876543209876544 0.8271604938271605 0
0.4876543209876544 0.6604938271604938 0
0.4598765432098766 0.8410493827160495 0
0.4506172839506173 0.7530864197530865 0
0.4783950617283951 0.8503086419753086 0
0.4598765432098766 0.6188271604938272 0
0.4783950617283951 0.6280864197530865 0
0.4506172839506173 0.697530864197531 0
0.3765432098765432 0.808641975308642 0
0.3395061728395061 0.7345679012345679 0
0.4228395061728394 0.8595679012345679 0
0.3395061728395062 0.6790123456790124 0
0.3858024691358025 0.7299382716049383 0
0.3302469135802469 0.7021604938271605 0
0.4506172839506173 0.8456790123456791 0
0.441358024691358 0.8688271604938271 0
0.4135802469135803 0.7716049382716049 0
0.3765432098765432 0.5679012345679012 0
0.4228395061728394 0.5632716049382717 0
0.3395061728395061 0.6049382716049383 0
0.4506172839506173 0.6049382716049383 0
0.4135802469135803 0.6419753086419754 0
0.441358024691358 0.5725308641975309 0
0.3395061728395062 0.660493827160494 0
0.3302469135802469 0.6280864197530865 0
0.3858024691358025 0.6558641975308643 0
0.25 0.9953703703703703 0
0.1666666666666667 0.9814814814814815 0
0.3333333333333333 0.9814814814814815 0
0.1388888888888889 0.9398148148148149 0
0.2222222222222222 0.925925925925926 0
0.1388888888888889 0.9675925925925927 0
0.3611111111111111 0.9398148148148149 0
0.3611111111111111 0.9675925925925927 0
0.2777777777777777 0.925925925925926 0
0.1296296296296296 0.8148148148148149 0
0.1851851851851852 0.7592592592592594 0
0.1018518518518519 0.8842592592592594 0
0.2407407407407407 0.7592592592592592 0
0.212962962962963 0.8287037037037037 0
0.212962962962963 0.7453703703703703 0
0.1296296296296296 0.9259259259259259 0
0.1018518518518519 0.9120370370370371 0
0.1851851851851852 0.8703703703703703 0
0.3703703703703704 0.8148148148148149 0
0.3981481481481481 0.8842592592592594 0
0.3148148148148148 0.7592592592592594 0
0.3703703703703704 0.9259259259259259 0
0.3148148148148148 0.8703703703703703 0
0.3981481481481481 0.9120370370370371 0
0.2592592592592592 0.7592592592592592 0
0.287037037037037 0.7453703703703703 0
0.287037037037037 0.8287037037037037 0
0.5015432098765432 0.00308641975308642 0
0.6728395061728395 0.01234567901234568 0
0.3395061728395062 0.01234567901234568 0
0.7422839506172839 0.04012345679012345 0
0.5802469135802468 0.04938271604938271 0
0.7330246913580246 0.02160493827160494 0
0.2978395061728394 0.04012345679012345 0
0.2885802469135803 0.02160493827160494 0
0.4691358024691357 0.04938271604938271 0
0.8024691358024691 0.1234567901234568 0
0.7098765432098766 0.1604938271604938 0
0.8348765432098766 0.0771604938271605 0
0.5987654320987654 0.1604938271604938 0
0.6311728395061729 0.1141975308641975 0
0.6589506172839507 0.1697530864197531 0
0.7654320987654321 0.04938271604938271 0
0.8256172839506174 0.05864197530864198 0
0.6728395061728395 0.08641975308641975 0
0.3209876543209877 0.1234567901234568 0
0.2422839506172839 0.0771604938271605 0
0.4506172839506173 0.1604938271604938 0
0.2839506172839506 0.04938271604938271 0
0.4135802469135801 0.08641975308641975 0
0.2330246913580246 0.05864197530864198 0
0.5617283950617283 0.1604938271604938 0
0.5108024691358025 0.1697530864197531 0
0.4830246913580247 0.1141975308641975 0
0.00308641975308642 0.5015432098765432 0
0.01234567901234568 0.3395061728395062 0
0.01234567901234568 0.6728395061728395 0
0.04012345679012345 0.2978395061728394 0
0.04938271604938271 0.4691358024691357 0
0.02160493827160494 0.2885802469135803 0
0.04012345679012345 0.7422839506172839 0
0.02160493827160494 0.7330246913580246 0
0.04938271604938271 0.5802469135802468 0
0.1234567901234568 0.3209876543209877 0
0.1604938271604938 0.4506172839506173 0
0.0771604938271605 0.2422839506172839 0
0.1604938271604938 0.5617283950617283 0
0.1141975308641975 0.4830246913580247 0
0.1697530864197531 0.5108024691358025 0
0.04938271604938271 0.2839506172839506 0
0.05864197530864198 0.2330246913580246 0
0.08641975308641975 0.4135802469135801 0
0.1234567901234568 0.8024691358024691 0
0.0771604938271605 0.8348765432098766 0
0.1604938271604938 0.7098765432098766 0
0.04938271604938271 0.7654320987654321 0
0.08641975308641975 0.6728395061728395 0
0.05864197530864198 0.8256172839506174 0
0.1604938271604938 0.5987654320987654 0
0.1697530864197531 0.6589506172839507 0
0.1141975308641975 0.6311728395061729 0
$EndNodes
$Elements
1 648 1 648
2 1 2 648
1 4 1 113 
2 1 41 113 
3 41 4 113 
4 1 17 114 
5 17 41 114 
6 41 1 114 
7 17 4 115 
8 4 41 115 
9 41 17 115 
10 1 9 116 
11 9 42 116 
12 42 1 116 
13 9 17 117 
14 17 42 117 
15 42 9 117 
16 17 1 118 
17 1 42 118 
18 42 17 118 
19 9 4 119 
20 4 43 119 
21 43 9 119 
22 4 17 120 
23 17 43 120 
24 43 4 120 
25 17 9 121 
26 9 43 121 
27 43 17 121 
28 1 7 122 
29 7 44 122 
30 44 1 122 
31 7 18 123 
32 18 44 123 
33 44 7 123 
34 18 1 124 
35 1 44 124 
36 44 18 124 
37 7 9 125 
38 9 45 125 
39 45 7 125 
40 9 18 126 
41 18 45 126 
42 45 9 126 
43 18 7 127 
44 7 45 127 
45 45 18 127 
46 9 1 128 
47 1 46 128 
48 46 9 128 
49 1 18 129 
50 18 46 129 
51 46 1 129 
52 18 9 130 
53 9 46 130 
54 46 18 130 
55 7 4 131 
56 4 47 131 
57 47 7 131 
58 4 19 132 
59 19 47 132 
60 47 4 132 
61 19 7 133 
62 7 47 133 
63 47 19 133 
64 4 9 134 
65 9 48 134 
66 48 4 134 
67 9 19 135 
68 19 48 135 
69 48 9 135 
70 19 4 136 
71 4 48 136 
72 48 19 136 
73 9 7 137 
74 7 49 137 
75 49 9 137 
76 7 19 138 
77 19 49 138 
78 49 7 138 
79 19 9 139 
80 9 49 139 
81 49 19 139 
82 1 4 140 
83 4 50 140 
84 50 1 140 
85 4 20 141 
86 20 50 141 
87 50 4 141 
88 20 1 142 
89 1 50 142 
90 50 20 142 
91 4 10 143 
92 10 51 143 
93 51 4 143 
94 10 20 144 
95 20 51 144 
96 51 10 144 
97 20 4 145 
98 4 51 145 
99 51 20 145 
100 10 1 146 
101 1 52 146 
102 52 10 146 
103 1 20 147 
104 20 52 147 
105 52 1 147 
106 20 10 148 
107 10 52 148 
108 52 20 148 
109 4 8 149 
110 8 53 149 
111 53 4 149 
112 8 21 150 
113 21 53 150 
114 53 8 150 
115 21 4 151 
116 4 53 151 
117 53 21 151 
118 8 10 152 
119 10 54 152 
120 54 8 152 
121 10 21 153 
122 21 54 153 
123 54 10 153 
124 21 8 154 
125 8 54 154 
126 54 21 154 
127 10 4 155 
128 4 55 155 
129 55 10 155 
130 4 21 156 
131 21 55 156 
132 55 4 156 
133 21 10 157 
134 10 55 157 
135 55 21 157 
136 8 1 158 
137 1 56 158 
138 56 8 158 
139 1 22 159 
140 22 56 159 
141 56 1 159 
142 22 8 160 
143 8 56 160 
144 56 22 160 
145 1 10 161 
146 10 57 161 
147 57 1 161 
148 10 22 162 
149 22 57 162 
150 57 10 162 
151 22 1 163 
152 1 57 163 
153 57 22 163 
154 10 8 164 
155 8 58 164 
156 58 10 164 
157 8 22 165 
158 22 58 165 
159 58 8 165 
160 22 10 166 
161 10 58 166 
162 58 22 166 
163 2 3 167 
164 3 59 167 
165 59 2 167 
166 3 23 168 
167 23 59 168 
168 59 3 168 
169 23 2 169 
170 2 59 169 
171 59 23 169 
172 3 11 170 
173 11 60 170 
174 60 3 170 
175 11 23 171 
176 23 60 171 
177 60 11 171 
178 23 3 172 
179 3 60 172 
180 60 23 172 
181 11 2 173 
182 2 61 173 
183 61 11 173 
184 2 23 174 
185 23 61 174 
186 61 2 174 
187 23 11 175 
188 11 61 175 
189 61 23 175 
190 3 7 176 
191 7 62 176 
192 62 3 176 
193 7 24 177 
194 24 62 177 
195 62 7 177 
196 24 3 178 
197 3 62 178 
198 62 24 178 
199 7 11 179 
200 11 63 179 
201 63 7 179 
202 11 24 180 
203 24 63 180 
204 63 11 180 
205 24 7 181 
206 7 63 181 
207 63 24 181 
208 11 3 182 
209 3 64 182 
210 64 11 182 
211 3 24 183 
212 24 64 183 
213 64 3 183 
214 24 11 184 
215 11 64 184 
216 64 24 184 
217 7 2 185 
218 2 65 185 
219 65 7 185 
220 2 25 186 
221 25 65 186 
222 65 2 186 
223 25 7 187 
224 7 65 187 
225 65 25 187 
226 2 11 188 
227 11 66 188 
228 66 2 188 
229 11 25 189 
230 25 66 189 
231 66 11 189 
232 25 2 190 
233 2 66 190 
234 66 25 190 
235 11 7 191 
236 7 67 191 
237 67 11 191 
238 7 25 192 
239 25 67 192 
240 67 7 192 
241 25 11 193 
242 11 67 193 
243 67 25 193 
244 3 4 194 
245 4 68 194 
246 68 3 194 
247 4 26 195 
248 26 68 195 
249 68 4 195 
250 26 3 196 
251 3 68 196 
252 68 26 196 
253 4 12 197 
254 12 69 197 
255 69 4 197 
256 12 26 198 
257 26 69 198 
258 69 12 198 
259 26 4 199 
260 4 69 199 
261 69 26 199 
262 12 3 200 
263 3 70 200 
264 70 12 200 
265 3 26 201 
266 26 70 201 
267 70 3 201 
268 26 12 202 
269 12 70 202 
270 70 26 202 
271 4 7 203 
272 7 71 203 
273 71 4 203 
274 7 27 204 
275 27 71 204 
276 71 7 204 
277 27 4 205 
278 4 71 205 
279 71 27 205 
280 7 12 206 
281 12 72 206 
282 72 7 206 
283 12 27 207 
284 27 72 207 
285 72 12 207 
286 27 7 208 
287 7 72 208 
288 72 27 208 
289 12 4 209 
290 4 73 209 
291 73 12 209 
292 4 27 210 
293 27 73 210 
294 73 4 210 
295 27 12 211 
296 12 73 211 
297 73 27 211 
298 7 3 212 
299 3 74 212 
300 74 7 212 
301 3 28 213 
302 28 74 213 
303 74 3 213 
304 28 7 214 
305 7 74 214 
306 74 28 214 
307 3 12 215 
308 12 75 215 
309 75 3 215 
310 12 28 216 
311 28 75 216 
312 75 12 216 
313 28 3 217 
314 3 75 217 
315 75 28 217 
316 12 7 218 
317 7 76 218 
318 76 12 218 
319 7 28 219 
320 28 76 219 
321 76 7 219 
322 28 12 220 
323 12 76 220 
324 76 28 220 
325 4 5 221 
326 5 77 221 
327 77 4 221 
328 5 29 222 
329 29 77 222 
330 77 5 222 
331 29 4 223 
332 4 77 223 
333 77 29 223 
334 5 13 224 
335 13 78 224 
336 78 5 224 
337 13 29 225 
338 29 78 225 
339 78 13 225 
340 29 5 226 
341 5 78 226 
342 78 29 226 
343 13 4 227 
344 4 79 227 
345 79 13 227 
346 4 29 228 
347 29 79 228 
348 79 4 228 
349 29 13 229 
350 13 79 229 
351 79 29 229 
352 5 8 230 
353 8 80 230 
354 80 5 230 
355 8 30 231 
356 30 80 231 
357 80 8 231 
358 30 5 232 
359 5 80 232 
360 80 30 232 
361 8 13 233 
362 13 81 233 
363 81 8 233 
364 13 30 234 
365 30 81 234 
366 81 13 234 
367 30 8 235 
368 8 81 235 
369 81 30 235 
370 13 5 236 
371 5 82 236 
372 82 13 236 
373 5 30 237 
374 30 82 237 
375 82 5 237 
376 30 13 238 
377 13 82 238 
378 82 30 238 
379 8 4 239 
380 4 83 239 
381 83 8 239 
382 4 31 240 
383 31 83 240 
384 83 4 240 
385 31 8 241 
386 8 83 241 
387 83 31 241 
388 4 13 242 
389 13 84 242 
390 84 4 242 
391 13 31 243 
392 31 84 243 
393 84 13 243 
394 31 4 244 
395 4 84 244 
396 84 31 244 
397 13 8 245 
398 8 85 245 
399 85 13 245 
400 8 31 246 
401 31 85 246 
402 85 8 246 
403 31 13 247 
404 13 85 247 
405 85 31 247 
406 5 6 248 
407 6 86 248 
408 86 5 248 
409 6 32 249 
410 32 86 249 
411 86 6 249 
412 32 5 250 
413 5 86 250 
414 86 32 250 
415 6 14 251 
416 14 87 251 
417 87 6 251 
418 14 32 252 
419 32 87 252 
420 87 14 252 
421 32 6 253 
422 6 87 253 
423 87 32 253 
424 14 5 254 
425 5 88 254 
426 88 14 254 
427 5 32 255 
428 32 88 255 
429 88 5 255 
430 32 14 256 
431 14 88 256 
432 88 32 256 
433 6 8 257 
434 8 89 257 
435 89 6 257 
436 8 33 258 
437 33 89 258 
438 89 8 258 
439 33 6 259 
440 6 89 259 
441 89 33 259 
442 8 14 260 
443 14 90 260 
444 90 8 260 
445 14 33 261 
446 33 90 261 
447 90 14 261 
448 33 8 262 
449 8 90 262 
450 90 33 262 
451 14 6 263 
452 6 91 263 
453 91 14 263 
454 6 33 264 
455 33 91 264 
456 91 6 264 
457 33 14 265 
458 14 91 265 
459 91 33 265 
460 8 5 266 
461 5 92 266 
462 92 8 266 
463 5 34 267 
464 34 92 267 
465 92 5 267 
466 34 8 268 
467 8 92 268 
468 92 34 268 
469 5 14 269 
470 14 93 269 
471 93 5 269 
472 14 34 270 
473 34 93 270 
474 93 14 270 
475 34 5 271 
476 5 93 271 
477 93 34 271 
478 14 8 272 
479 8 94 272 
480 94 14 272 
481 8 34 273 
482 34 94 273 
483 94 8 273 
484 34 14 274 
485 14 94 274 
486 94 34 274 
487 1 2 275 
488 2 95 275 
489 95 1 275 
490 2 35 276 
491 35 95 276 
492 95 2 276 
493 35 1 277 
494 1 95 277 
495 95 35 277 
496 2 15 278 
497 15 96 278 
498 96 2 278 
499 15 35 279 
500 35 96 279 
501 96 15 279 
502 35 2 280 
503 2 96 280 
504 96 35 280 
505 15 1 281 
506 1 97 281 
507 97 15 281 
508 1 35 282 
509 35 97 282 
510 97 1 282 
511 35 15 283 
512 15 97 283 
513 97 35 283 
514 2 7 284 
515 7 98 284 
516 98 2 284 
517 7 36 285 
518 36 98 285 
519 98 7 285 
520 36 2 286 
521 2 98 286 
522 98 36 286 
523 7 15 287 
524 15 99 287 
525 99 7 287 
526 15 36 288 
527 36 99 288 
528 99 15 288 
529 36 7 289 
530 7 99 289 
531 99 36 289 
532 15 2 290 
533 2 100 290 
534 100 15 290 
535 2 36 291 
536 36 100 291 
537 100 2 291 
538 36 15 292 
539 15 100 292 
540 100 36 292 
541 7 1 293 
542 1 101 293 
543 101 7 293 
544 1 37 294 
545 37 101 294 
546 101 1 294 
547 37 7 295 
548 7 101 295 
549 101 37 295 
550 1 15 296 
551 15 102 296 
552 102 1 296 
553 15 37 297 
554 37 102 297 
555 102 15 297 
556 37 1 298 
557 1 102 298 
558 102 37 298 
559 15 7 299 
560 7 103 299 
561 103 15 299 
562 7 37 300 
563 37 103 300 
564 103 7 300 
565 37 15 301 
566 15 103 301 
567 103 37 301 
568 6 1 302 
569 1 104 302 
570 104 6 302 
571 1 38 303 
572 38 104 303 
573 104 1 303 
574 38 6 304 
575 6 104 304 
576 104 38 304 
577 1 16 305 
578 16 105 305 
579 105 1 305 
580 16 38 306 
581 38 105 306 
582 105 16 306 
583 38 1 307 
584 1 105 307 
585 105 38 307 
586 16 6 308 
587 6 106 308 
588 106 16 308 
589 6 38 309 
590 38 106 309 
591 106 6 309 
592 38 16 310 
593 16 106 310 
594 106 38 310 
595 1 8 311 
596 8 107 311 
597 107 1 311 
598 8 39 312 
599 39 107 312 
600 107 8 312 
601 39 1 313 
602 1 107 313 
603 107 39 313 
604 8 16 314 
605 16 108 314 
606 108 8 314 
607 16 39 315 
608 39 108 315 
609 108 16 315 
610 39 8 316 
611 8 108 316 
612 108 39 316 
613 16 1 317 
614 1 109 317 
615 109 16 317 
616 1 39 318 
617 39 109 318 
618 109 1 318 
619 39 16 319 
620 16 109 319 
621 109 39 319 
622 8 6 320 
623 6 110 320 
624 110 8 320 
625 6 40 321 
626 40 110 321 
627 110 6 321 
628 40 8 322 
629 8 110 322 
630 110 40 322 
631 6 16 323 
632 16 111 323 
633 111 6 323 
634 16 40 324 
635 40 111 324 
636 111 16 324 
637 40 6 325 
638 6 111 325 
639 111 40 325 
640 16 8 326 
641 8 112 326 
642 112 16 326 
643 8 40 327 
644 40 112 327 
645 112 8 327 
646 40 16 328 
647 16 112 328 
648 112 40 328 
$EndElements
